<svg id="Layer" xmlns="http://www.w3.org/2000/svg" xmlns:xlink="http://www.w3.org/1999/xlink" viewBox="0 0 309.94 210.07"><defs><style>.cls-1{fill:none;}.cls-2,.cls-25{fill:#fff;}.cls-3,.cls-30{opacity:0.2;}.cls-24,.cls-30,.cls-4,.cls-5{fill:#ffce44;}.cls-19,.cls-5{opacity:0.4;}.cls-14,.cls-23,.cls-6{fill:#1d1b37;}.cls-7{fill:#999ea3;}.cls-8{fill:#da775e;}.cls-9{fill:#f29277;}.cls-10{fill:#4b2583;}.cls-11{fill:url(#Névtelen_színátmenet_70);}.cls-12{fill:url(#Névtelen_színátmenet_70-2);}.cls-13,.cls-23,.cls-24,.cls-25,.cls-26{fill-rule:evenodd;}.cls-13{fill:url(#Névtelen_színátmenet_70-3);}.cls-14{opacity:0.05;}.cls-15{fill:#734139;}.cls-16{fill:url(#Új_mintázatos_színtár_1);}.cls-17{fill:url(#Új_mintázatos_színtár_1-3);}.cls-18{fill:#cbced8;}.cls-20,.cls-26{fill:#6b4997;}.cls-21{fill:#e9ecf8;}.cls-22{fill:#fad69d;}.cls-25,.cls-32{opacity:0.5;}.cls-27{fill:#f3f1f0;}.cls-28{fill:#c6c6c6;}.cls-29{fill:url(#Új_mintázatos_színtár_1-5);}.cls-31{fill:#f6f8f9;}.cls-33{fill:url(#Névtelen_színátmenet_70-4);}</style><linearGradient id="Névtelen_színátmenet_70" x1="180.18" y1="46.38" x2="181.91" y2="46.38" gradientUnits="userSpaceOnUse"><stop offset="0" stop-color="#8e5f51"/><stop offset="0.39" stop-color="#885a4c"/><stop offset="0.89" stop-color="#794c40"/><stop offset="1" stop-color="#74483c"/></linearGradient><linearGradient id="Névtelen_színátmenet_70-2" x1="164.92" y1="73.54" x2="164.92" y2="62.1" xlink:href="#Névtelen_színátmenet_70"/><linearGradient id="Névtelen_színátmenet_70-3" x1="149.29" y1="47.79" x2="180.3" y2="47.79" xlink:href="#Névtelen_színátmenet_70"/><pattern id="Új_mintázatos_színtár_1" data-name="Új mintázatos színtár 1" width="38.25" height="55" patternTransform="translate(-14.16 -21.97)" patternUnits="userSpaceOnUse" viewBox="0 0 38.24 55"><rect class="cls-1" width="38.25" height="55"/><rect class="cls-2" width="38.25" height="55"/></pattern><pattern id="Új_mintázatos_színtár_1-3" data-name="Új mintázatos színtár 1" width="38.25" height="55" patternTransform="translate(0.52 -21.97)" patternUnits="userSpaceOnUse" viewBox="0 0 38.24 55"><rect class="cls-1" width="38.25" height="55"/><rect class="cls-2" width="38.25" height="55"/></pattern><pattern id="Új_mintázatos_színtár_1-5" data-name="Új mintázatos színtár 1" x="-13.87" y="-17.15" width="38.25" height="55" patternUnits="userSpaceOnUse" viewBox="0 0 38.24 55"><rect class="cls-1" width="38.25" height="55"/><rect class="cls-2" width="38.25" height="55"/></pattern><linearGradient id="Névtelen_színátmenet_70-4" x1="153.37" y1="115.59" x2="193.91" y2="115.59" xlink:href="#Névtelen_színátmenet_70"/></defs><title>eezy_20</title><g class="cls-3"><path class="cls-4" d="M125.9,27.34h-64V213.18h66V27.34Zm0,183.87H63.83V29.31H125.9Z" transform="translate(-13.87 -17.15)"/><path class="cls-4" d="M124.82,30.3H64.88V210.1h59.94Zm-31.4,177H67.66V151.56H93.42Zm0-58.55H67.66V90.93H93.42Zm0-60.71H67.66v-55H93.42ZM122,207.33H96.28V151.56H122Zm0-58.55H96.28V90.93H122Zm0-60.71H96.28v-55H122Z" transform="translate(-13.87 -17.15)"/></g><g class="cls-3"><path class="cls-4" d="M271.91,27.34h-64V213.18h66V27.34Zm0,183.87H209.84V29.31h62.07Z" transform="translate(-13.87 -17.15)"/><path class="cls-4" d="M270.83,30.3H210.9V210.1h59.93Zm-31.39,177H213.67V151.56h25.77Zm0-58.55H213.67V90.93h25.77Zm0-60.71H213.67v-55h25.77Zm28.62,119.26H242.3V151.56h25.76Zm0-58.55H242.3V90.93h25.76Zm0-60.71H242.3v-55h25.76Z" transform="translate(-13.87 -17.15)"/></g><rect class="cls-5" width="309.94" height="202.22" rx="13.31" ry="13.31"/><path class="cls-6" d="M205.15,133.23c0,20.43-22.38,27.55-37.16,27.55s-37.15-7.12-37.15-27.55,22.37-58,37.15-58S205.15,112.8,205.15,133.23Z" transform="translate(-13.87 -17.15)"/><path class="cls-7" d="M187.92,156.78a49.07,49.07,0,0,1-7.54,2.52c.44,1.41,1.09,3.45,1.88,6l-13.9,9.86-14.5-10.28,1.73-5.46a50,50,0,0,1-7.55-2.47c-1.27,5.26-16.39,68.07-16.35,69.17S133,227.2,133,227.2s1.26.23,1.49-.9c.1-.46,3.74-12.06,8-25.63l25.83-18.33L193.25,200c4.37,13.85,8.14,25.83,8.23,26.3.23,1.13,1.49.9,1.49.9s1.28,0,1.32-1.12S189,161.06,187.92,156.78Zm2.39,33.92-16.87-12,10.69-7.58C185.94,176.86,188.12,183.75,190.31,190.7Zm-7.74-24.47,1.25,3.94-11.22,8-3.4-2.41Zm-15.06,9.49-3.4,2.41-11.81-8.37c.44-1.41.86-2.73,1.25-3.95Zm-15.52-5,11.28,8-17.81,12.63C147.79,184,150.1,176.7,152,170.73Zm-9,28.39,2-6.22,19.13-13.57,3.4,2.41Zm25.34-18-3.4-2.41,3.41-2.41,3.4,2.41Zm.85.6,3.4-2.41,18.2,12.91c.66,2.09,1.32,4.17,2,6.22Z" transform="translate(-13.87 -17.15)"/><path class="cls-8" d="M186.78,141.7l7.74,75.55a5.66,5.66,0,0,1-5.62,6.34h1.42c-2.56,0-4.23-1.71-4.9-4.17l-20.55-73.28a12.39,12.39,0,0,1-.44-3.14c0-3.74,1.18-11.38,10.85-11.38h.27A11.44,11.44,0,0,1,186.78,141.7Z" transform="translate(-13.87 -17.15)"/><path class="cls-9" d="M137.91,120.51s4.27-6.85,21.49-6.85c18.38,0,27.52,7.7,34.39,16.19,7.77,9.62,29.46,56.38,29.46,56.38l-9.34,4.05-33.33-49.52H140.71S131.11,131.21,137.91,120.51Z" transform="translate(-13.87 -17.15)"/><path class="cls-10" d="M193.75,119.65c.1-1.83.8-23.44.8-32.91,0-11.08-2.14-18-7.92-19.58s-14.22-4.47-14.22-4.47h0v.41a4.15,4.15,0,0,1-4.15,4.15H162a4.15,4.15,0,0,1-4.15-4.15V62.7h0s-8.44,2.92-14.21,4.47-7.92,8.5-7.92,19.58c0,10.19.32,30.07.32,30.07s-.3-.68,8.41-.15v0s.6,5.44,1.63,5.44h38.14v-5.44c1,0,1.91,5.29,2.83,5Z" transform="translate(-13.87 -17.15)"/><path class="cls-11" d="M180.21,43.76v4.68c0,.19,0,.37,0,.56a2.86,2.86,0,0,0,0-5.24Z" transform="translate(-13.87 -17.15)"/><path class="cls-12" d="M164.5,64.44a14.81,14.81,0,0,1-7.15-1.86v4.19a6.73,6.73,0,0,0,6.43,6.77h2.27a6.73,6.73,0,0,0,6.44-6.77V62.1A15,15,0,0,1,164.5,64.44Z" transform="translate(-13.87 -17.15)"/><path class="cls-13" d="M180.2,32.47H164.14c-11.29,0-14.15-.66-14.7-1.61h-.11v9.59l0,0v7.49c0,9.23,7,16.79,15.51,16.79s15.5-7.56,15.5-16.79Z" transform="translate(-13.87 -17.15)"/><path class="cls-14" d="M164.91,64.71a14.39,14.39,0,0,1-7.45-2.09v3a14.32,14.32,0,0,0,15.14-.15v-3A14.52,14.52,0,0,1,164.91,64.71Z" transform="translate(-13.87 -17.15)"/><path class="cls-15" d="M166.28,51.55a1.39,1.39,0,0,1-.42,1.25,1.92,1.92,0,0,1-1.39.56,2,2,0,0,1-1.4-.56,1.42,1.42,0,0,1-.42-1.25,1.73,1.73,0,0,0,.64,1.05,1.93,1.93,0,0,0,1.18.4,1.84,1.84,0,0,0,1.17-.4A1.73,1.73,0,0,0,166.28,51.55Z" transform="translate(-13.87 -17.15)"/><path class="cls-6" d="M157.21,46.31h0a1.33,1.33,0,0,1-1.33,1.32h0a1.33,1.33,0,1,0,1.33-1.32Z" transform="translate(-13.87 -17.15)"/><path class="cls-6" d="M171.82,46.31h0a1.33,1.33,0,0,1-1.33,1.32h0a1.33,1.33,0,1,0,1.33-1.32Z" transform="translate(-13.87 -17.15)"/><circle class="cls-16" cx="144.36" cy="30.85" r="0.45"/><circle class="cls-17" cx="159.05" cy="30.85" r="0.45"/><path class="cls-6" d="M184.63,216.58h9.89s2.63,5.24,2.63,8.28H182C182,221.82,184.63,216.58,184.63,216.58Z" transform="translate(-13.87 -17.15)"/><path class="cls-18" d="M187.08,221.85h5c3,0,5.49,1.79,5.49,5.22h-16C181.59,223.46,184.06,221.85,187.08,221.85Z" transform="translate(-13.87 -17.15)"/><path class="cls-6" d="M213.87,190l4.85-2,4.46-1.84s4.5,3.92,5.68,6.78l-6.93,2.85-7.32,3C213.43,195.92,213.87,190,213.87,190Z" transform="translate(-13.87 -17.15)"/><path class="cls-18" d="M218.22,194l4.7-1.93c2.84-1.17,5.86-.45,7.19,2.78l-15,6.19C213.68,197.63,215.38,195.15,218.22,194Z" transform="translate(-13.87 -17.15)"/><rect class="cls-7" x="12.62" y="99.03" width="283" height="7.21"/><path class="cls-8" d="M144.82,123.39h-8.37c-3.67,9.48,4.26,17.37,4.26,17.37h8.37S141.15,132.87,144.82,123.39Z" transform="translate(-13.87 -17.15)"/><rect class="cls-6" x="30.3" y="106.24" width="1.22" height="103.19"/><polygon class="cls-6" points="42.77 106.24 36.06 209.43 37.34 209.43 44.04 106.24 42.77 106.24"/><rect class="cls-6" x="276.72" y="106.24" width="1.22" height="103.19"/><polygon class="cls-6" points="264.19 106.24 270.9 209.43 272.17 209.43 265.47 106.24 264.19 106.24"/><g class="cls-19"><g id="_Group_" data-name="&lt;Group&gt;"><g id="table_pattern" data-name="table pattern"><rect class="cls-18" x="216.97" y="102.78" width="7.24" height="0.72"/><rect class="cls-18" x="206.28" y="103.98" width="7.59" height="0.72"/><rect class="cls-18" x="193.52" y="103.98" width="6.55" height="0.72"/><rect class="cls-18" x="181.79" y="103.98" width="7.07" height="0.72"/><rect class="cls-18" x="172.14" y="103.98" width="6.21" height="0.72"/><rect class="cls-18" x="188.86" y="100.36" width="8.79" height="0.72"/><rect class="cls-18" x="203.2" y="101.84" width="6.88" height="0.72"/><rect class="cls-18" x="213.87" y="100.76" width="4.98" height="0.72"/><rect class="cls-18" x="199.19" y="100.76" width="3.43" height="0.72"/><rect class="cls-18" x="177.98" y="100.76" width="5.88" height="0.72"/><rect class="cls-18" x="201.32" y="103.98" width="1.88" height="0.72"/><rect class="cls-18" x="186" y="100.36" width="1.62" height="0.72"/><rect class="cls-18" x="168.67" y="101.84" width="7.05" height="0.72"/><rect class="cls-18" x="165.44" y="103.98" width="1.36" height="0.72"/><rect class="cls-18" x="158.9" y="103.98" width="5.56" height="0.72"/><rect class="cls-18" x="163.37" y="100.36" width="3.43" height="0.72"/><rect class="cls-18" x="154.77" y="100.36" width="6.92" height="0.72"/><rect class="cls-18" x="151.79" y="100.36" width="1.23" height="0.72"/><rect class="cls-18" x="144.03" y="100.36" width="6.01" height="0.72"/><rect class="cls-18" x="147.91" y="102.75" width="7.18" height="0.72"/><rect class="cls-18" x="139.7" y="103.98" width="6.27" height="0.72"/><rect class="cls-18" x="136.92" y="103.98" width="1.29" height="0.72"/><rect class="cls-18" x="134.98" y="101.84" width="7.86" height="0.72"/><rect class="cls-18" x="130.78" y="100.76" width="3.56" height="0.72"/><rect class="cls-18" x="125.8" y="103.98" width="7.05" height="0.72"/><rect class="cls-18" x="120.76" y="100.76" width="8.02" height="0.72"/><rect class="cls-18" x="112.09" y="103.47" width="8.66" height="0.72"/><rect class="cls-18" x="108.99" y="100.76" width="6.01" height="0.72"/><rect class="cls-18" x="103.36" y="103.98" width="6.47" height="0.72"/><rect class="cls-18" x="99.03" y="101.84" width="6.53" height="0.72"/><rect class="cls-18" x="95.15" y="100.36" width="1.29" height="0.72"/><rect class="cls-18" x="117.2" y="100.36" width="1.42" height="0.72"/><rect class="cls-18" x="95.8" y="103.47" width="1.29" height="0.72"/><rect class="cls-18" x="88.82" y="103.47" width="5.37" height="0.72"/><rect class="cls-18" x="83.71" y="100.36" width="8.66" height="0.72"/><rect class="cls-18" x="67.67" y="103.98" width="1.49" height="0.72"/><rect class="cls-18" x="70.65" y="103.47" width="7.18" height="0.72"/><rect class="cls-18" x="81.31" y="102.75" width="5.69" height="0.72"/><rect class="cls-18" x="74.78" y="100.76" width="6.79" height="0.72"/><rect class="cls-18" x="65.6" y="101.84" width="7.89" height="0.72"/><rect class="cls-18" x="56.36" y="103.98" width="7.56" height="0.72"/><rect class="cls-18" x="52.99" y="100.76" width="10.09" height="0.72"/><rect class="cls-18" x="49.89" y="100.36" width="1.29" height="0.72"/><rect class="cls-18" x="43.42" y="103.47" width="8.02" height="0.72"/><rect class="cls-18" x="39.67" y="100.76" width="6.92" height="0.72"/><rect class="cls-18" x="34.44" y="103.47" width="7.05" height="0.72"/><rect class="cls-18" x="26.29" y="101.39" width="10.54" height="0.72"/><rect class="cls-18" x="19.82" y="103.47" width="8.86" height="0.72"/><rect class="cls-18" x="15.36" y="103.47" width="2.26" height="0.72"/><rect class="cls-18" x="15.81" y="100.76" width="8.44" height="0.72"/></g></g><g id="_Group_2" data-name="&lt;Group&gt;"><g id="table_pattern-2" data-name="table pattern"><rect class="cls-18" x="277.64" y="103.98" width="1.49" height="0.72"/><rect class="cls-18" x="280.61" y="103.47" width="7.18" height="0.72"/><rect class="cls-18" x="284.75" y="100.76" width="6.79" height="0.72"/><rect class="cls-18" x="275.57" y="101.84" width="7.89" height="0.72"/><rect class="cls-18" x="266.32" y="103.98" width="7.56" height="0.72"/><rect class="cls-18" x="262.96" y="100.76" width="10.09" height="0.72"/><rect class="cls-18" x="259.86" y="100.36" width="1.29" height="0.72"/><rect class="cls-18" x="253.39" y="103.47" width="8.02" height="0.72"/><rect class="cls-18" x="249.64" y="100.76" width="6.92" height="0.72"/><rect class="cls-18" x="244.4" y="103.47" width="7.05" height="0.72"/><rect class="cls-18" x="236.26" y="101.39" width="10.54" height="0.72"/><rect class="cls-18" x="229.79" y="103.47" width="8.86" height="0.72"/><rect class="cls-18" x="225.33" y="103.47" width="2.26" height="0.72"/><rect class="cls-18" x="225.78" y="100.76" width="8.44" height="0.72"/></g></g></g><rect class="cls-2" x="178.71" y="19.02" width="95.49" height="66" rx="3.51" ry="3.51"/><path class="cls-2" d="M262.2,116.1a2.07,2.07,0,0,0-2.07-2h-39.6a2.07,2.07,0,0,0-2.07,2Z" transform="translate(-13.87 -17.15)"/><g id="folder"><rect class="cls-20" x="278.69" y="35.42" width="16.9" height="63.79"/><rect class="cls-2" x="282.06" y="40.49" width="10.16" height="36.34"/><path class="cls-2" d="M306.09,106.81a5.08,5.08,0,1,1-5.07-5.08A5.08,5.08,0,0,1,306.09,106.81Z" transform="translate(-13.87 -17.15)"/><path class="cls-21" d="M301,103.78a3,3,0,1,1-3,3,3,3,0,0,1,3-3m0-2a5.08,5.08,0,1,0,5.07,5.08,5.07,5.07,0,0,0-5.07-5.08Z" transform="translate(-13.87 -17.15)"/></g><path class="cls-2" d="M59.09,115a1.23,1.23,0,0,1-1.25,1.21H30.69A1.23,1.23,0,0,1,29.45,115V70.67a1.23,1.23,0,0,1,1.24-1.22H57.84a1.23,1.23,0,0,1,1.25,1.22Z" transform="translate(-13.87 -17.15)"/><rect class="cls-18" x="18.01" y="56.81" width="24.76" height="37.71"/><rect class="cls-7" x="27.07" y="54.52" width="6.65" height="0.99"/><ellipse class="cls-18" cx="30.26" cy="96.88" rx="1.53" ry="1.5"/><ellipse class="cls-2" cx="30.26" cy="96.82" rx="0.9" ry="0.88"/><polygon class="cls-22" points="20.51 79.21 20.51 60.8 40.18 60.8 40.18 79.06 20.51 79.21"/><path class="cls-2" d="M53.84,78.16l0,18-19.2,0v-18H53.84m.44-.43H34.17V96.58H54.28V77.73Z" transform="translate(-13.87 -17.15)"/><path class="cls-2" d="M39.41,86.3h-1v1.28h1a5.08,5.08,0,0,0,.32,1.19l-.89.51.65,1.12.9-.51a5.23,5.23,0,0,0,.89.87l-.52.88,1.14.64.52-.88a4.5,4.5,0,0,0,1.21.32v1h1.31v-1a4.57,4.57,0,0,0,1.22-.32l.52.88,1.13-.64-.52-.88a4.89,4.89,0,0,0,.89-.87l.9.51.66-1.12-.9-.51a4.27,4.27,0,0,0,.32-1.19h1V86.3h-1a4.27,4.27,0,0,0-.32-1.19l.9-.51-.66-1.11-.9.5a4.9,4.9,0,0,0-.89-.87l.52-.88-1.13-.64-.52.88a5,5,0,0,0-1.22-.32v-1H43.63v1a4.9,4.9,0,0,0-1.21.32l-.52-.88-1.14.64.52.88a5.64,5.64,0,0,0-.89.87l-.9-.5-.65,1.11.89.51A5.08,5.08,0,0,0,39.41,86.3Zm3.78.64A1.1,1.1,0,1,1,44.29,88,1.09,1.09,0,0,1,43.19,86.94Z" transform="translate(-13.87 -17.15)"/><path class="cls-21" d="M41.84,86.94a2.45,2.45,0,1,0,2.45-2.39A2.43,2.43,0,0,0,41.84,86.94Zm1.35,0A1.1,1.1,0,1,1,44.29,88,1.09,1.09,0,0,1,43.19,86.94Z" transform="translate(-13.87 -17.15)"/><path class="cls-23" d="M182.17,37v0h0A17.36,17.36,0,0,0,171.5,21a14.48,14.48,0,0,0-6.61-1.44c-7.75.2-16,3.88-18,11.83-1.76,7.3-7.69,15.61-11.83,17.12C150,52,166.85,42.93,170,33.86c-1,6-3.5,7.62-7.94,11.36l.5,0a11.82,11.82,0,0,0,1.46,0,24.51,24.51,0,0,0,16.2-7.44v9.88A32.41,32.41,0,0,0,182.17,37h0Z" transform="translate(-13.87 -17.15)"/><path class="cls-2" d="M169,56a25.68,25.68,0,0,1-8.57,0c-.48-.08-.75-.15-.75-.15a2.92,2.92,0,0,0,.21.61,3.17,3.17,0,0,0,.27.47l.1.13a2.55,2.55,0,0,0,.26.3l.12.12a4.87,4.87,0,0,0,.42.35,6.64,6.64,0,0,0,3.56,1.06h.18a6.7,6.7,0,0,0,3.57-1.06,4.87,4.87,0,0,0,.42-.35l.11-.12a2.61,2.61,0,0,0,.27-.3,1.13,1.13,0,0,1,.1-.13,4.39,4.39,0,0,0,.27-.47,2.43,2.43,0,0,0,.2-.61S169.49,55.87,169,56Z" transform="translate(-13.87 -17.15)"/><path class="cls-9" d="M164.94,57.21h-.43a15.25,15.25,0,0,1-4.61-.8,3.44,3.44,0,0,0,1.17,1.37,6.64,6.64,0,0,0,3.56,1.06h.18a6.7,6.7,0,0,0,3.57-1.06,3.52,3.52,0,0,0,1.17-1.37A15.31,15.31,0,0,1,164.94,57.21Z" transform="translate(-13.87 -17.15)"/><path id="_Összetett_görbe_" data-name="&lt;Összetett görbe&gt;" class="cls-24" d="M160.87,43.71a13.18,13.18,0,0,0-4.7-.73c-.28,0-.82,0-1.36.09-1.51.14-4.8.55-6.08,1.28a.28.28,0,0,0-.11.22c0,.39,0,.79,0,1.19a.65.65,0,0,0,.46.63,1.67,1.67,0,0,1,1.07,1.11c.21.63.41,1.26.62,1.88A7.59,7.59,0,0,0,152.24,52a5.15,5.15,0,0,0,3.32,1.63,7.77,7.77,0,0,0,3.45-.34,4.37,4.37,0,0,0,1.84-1.17A6.24,6.24,0,0,0,162,50.42a14.63,14.63,0,0,0,1-3,.77.77,0,0,0-.16-.74.67.67,0,0,1,.36-1.07,6.34,6.34,0,0,1,3.18,0,.66.66,0,0,1,.35,1.07.79.79,0,0,0-.15.74,14.63,14.63,0,0,0,1,3,6.24,6.24,0,0,0,1.11,1.67,4.37,4.37,0,0,0,1.84,1.17,7.75,7.75,0,0,0,3.45.34A5.15,5.15,0,0,0,177.32,52a7.59,7.59,0,0,0,1.44-2.59c.21-.62.41-1.25.62-1.88a1.67,1.67,0,0,1,1.07-1.11.65.65,0,0,0,.46-.63c0-.4,0-.8,0-1.19a.28.28,0,0,0-.11-.22c-1.28-.73-4.58-1.14-6.08-1.28-.54,0-1.08-.07-1.36-.09a13.18,13.18,0,0,0-4.7.73c-.42.15-.82.36-1.23.55a.77.77,0,0,1-.71,0,1.18,1.18,0,0,0-.49-.12h-3a1.18,1.18,0,0,0-.49.12.78.78,0,0,1-.71,0c-.41-.19-.81-.4-1.23-.55Zm17.57,3.22h0a9.14,9.14,0,0,1-.27,2.2,5.14,5.14,0,0,1-3.42,3.78,6.64,6.64,0,0,1-3.67-.08,3.78,3.78,0,0,1-2.6-2.1,8.18,8.18,0,0,1-.85-4.07,2.56,2.56,0,0,1,1.12-2,4.32,4.32,0,0,1,1.8-.67,14.09,14.09,0,0,1,4.2-.12,7,7,0,0,1,1.92.46,2.66,2.66,0,0,1,1.77,2.64Zm-27.33,0h0a2.68,2.68,0,0,1,1.78-2.64,7,7,0,0,1,1.92-.46A14.1,14.1,0,0,1,159,44a4.32,4.32,0,0,1,1.8.67,2.58,2.58,0,0,1,1.12,2,8.18,8.18,0,0,1-.85,4.07,3.8,3.8,0,0,1-2.61,2.1,6.61,6.61,0,0,1-3.66.08,5.14,5.14,0,0,1-3.42-3.78A9.68,9.68,0,0,1,151.11,46.93Z" transform="translate(-13.87 -17.15)"/><path id="_Görbe_" data-name="&lt;Görbe&gt;" class="cls-25" d="M178.44,46.93h0a9.14,9.14,0,0,1-.27,2.2,5.14,5.14,0,0,1-3.42,3.78,6.64,6.64,0,0,1-3.67-.08,3.78,3.78,0,0,1-2.6-2.1,8.18,8.18,0,0,1-.85-4.07,2.56,2.56,0,0,1,1.12-2,4.32,4.32,0,0,1,1.8-.67,14.09,14.09,0,0,1,4.2-.12,7,7,0,0,1,1.92.46,2.66,2.66,0,0,1,1.77,2.64Z" transform="translate(-13.87 -17.15)"/><path id="_Görbe_2" data-name="&lt;Görbe&gt;" class="cls-25" d="M151.11,46.93h0a2.68,2.68,0,0,1,1.78-2.64,7,7,0,0,1,1.92-.46A14.1,14.1,0,0,1,159,44a4.32,4.32,0,0,1,1.8.67,2.58,2.58,0,0,1,1.12,2,8.18,8.18,0,0,1-.85,4.07,3.8,3.8,0,0,1-2.61,2.1,6.61,6.61,0,0,1-3.66.08,5.14,5.14,0,0,1-3.42-3.78A9.68,9.68,0,0,1,151.11,46.93Z" transform="translate(-13.87 -17.15)"/><path class="cls-26" d="M157.42,67.15v-4.8c-10.9,6.88-12.88,22.37-12.88,22.37L154,89.13l-7.73,5.15,7.41,15.14A11.78,11.78,0,0,0,164.25,116l-5.12-30A113.27,113.27,0,0,1,157.42,67.15Z" transform="translate(-13.87 -17.15)"/><path class="cls-26" d="M185.44,84.72s-2-15.49-12.89-22.37v4.8A112.21,112.21,0,0,1,170.85,86L165.72,116h0a11.79,11.79,0,0,0,10.6-6.61l7.41-15.14L176,89.13Z" transform="translate(-13.87 -17.15)"/><path class="cls-26" d="M141.23,95.5,137,105.35l25-.07.57,10.92H129.49c-10.57,0-6-12.73-6-12.73C134.29,72.31,140.38,69,140.38,69A96.26,96.26,0,0,1,141.23,95.5Z" transform="translate(-13.87 -17.15)"/><path class="cls-15" d="M186.94,112.91c.38.38.77.75,1.17,1.12l.21.18a3.47,3.47,0,0,0,1.49-.95c.95-.86-.05-1.88-1.28-1.85-.81,0-3.52,0-3.52,0l0,0A11.87,11.87,0,0,1,186.94,112.91Z" transform="translate(-13.87 -17.15)"/><g id="glue"><g id="_Csoport_" data-name="&lt;Csoport&gt;"><path class="cls-7" d="M280.89,101.1H281a.73.73,0,1,0,0-1.46h-.07v-.3H281a.74.74,0,0,0,0-1.47h-8.62a.74.74,0,1,0,0,1.47h.06v.3h-.06a.73.73,0,1,0,0,1.46h8.55Z" transform="translate(-13.87 -17.15)"/></g><path class="cls-9" d="M280.77,97.87v-3.3a.51.51,0,0,0-.5-.5H273a.5.5,0,0,0-.49.5v3.3Z" transform="translate(-13.87 -17.15)"/><g id="_Téglalap_" data-name="&lt;Téglalap&gt;"><rect class="cls-6" x="253.98" y="83.94" width="17.51" height="15.01" rx="3.05" ry="3.05"/></g><g id="_Csoport_2" data-name="&lt;Csoport&gt;"><rect class="cls-2" x="255.95" y="89.65" width="13.57" height="5.72"/></g><rect class="cls-18" x="258.46" y="82.17" width="8.62" height="0.33"/></g><g id="_Csoport_3" data-name="&lt;Csoport&gt;"><path class="cls-10" d="M223.33,77.21,216,96.36a1.21,1.21,0,0,0,.7,1.57l.49.18a1.2,1.2,0,0,0,1.56-.7l7.3-19.15Z" transform="translate(-13.87 -17.15)"/><polygon class="cls-22" points="212.68 55.69 212.21 61.11 209.45 60.06 212.68 55.69"/><polygon class="cls-10" points="212.56 57.07 212.68 55.69 211.85 56.8 212.56 57.07"/><path class="cls-9" d="M215,77l-.06,20.5a1.21,1.21,0,0,0,1.21,1.21h.53a1.2,1.2,0,0,0,1.21-1.21L217.92,77Z" transform="translate(-13.87 -17.15)"/><polygon class="cls-22" points="202.56 54.63 204.03 59.87 201.09 59.87 202.56 54.63"/><polygon class="cls-9" points="202.94 55.97 202.56 54.63 202.18 55.97 202.94 55.97"/><g id="_Csoport_4" data-name="&lt;Csoport&gt;"><g id="_Csoport_5" data-name="&lt;Csoport&gt;"><polygon id="_Görbe_3" data-name="&lt;Görbe&gt;" class="cls-4" points="199.22 85.76 193.45 85.77 193.69 48.33 199.46 48.32 199.22 85.76"/><polygon id="_Görbe_4" data-name="&lt;Görbe&gt;" class="cls-22" points="199.12 50.97 197.33 50.97 197.33 50.64 199.12 50.64 199.12 50.97"/><polygon id="_Görbe_5" data-name="&lt;Görbe&gt;" class="cls-22" points="199.11 52.13 197.32 52.13 197.32 51.8 199.11 51.8 199.11 52.13"/><polygon id="_Görbe_6" data-name="&lt;Görbe&gt;" class="cls-22" points="199.1 53.29 197.31 53.29 197.32 52.96 199.1 52.96 199.1 53.29"/><polygon id="_Görbe_7" data-name="&lt;Görbe&gt;" class="cls-22" points="199.09 54.45 197.31 54.45 197.31 54.12 199.1 54.12 199.09 54.45"/><polygon id="_Görbe_8" data-name="&lt;Görbe&gt;" class="cls-22" points="199.09 55.61 197.3 55.61 197.3 55.28 199.09 55.28 199.09 55.61"/><polygon id="_Görbe_9" data-name="&lt;Görbe&gt;" class="cls-22" points="199.08 56.77 197.29 56.77 197.29 56.44 199.08 56.44 199.08 56.77"/><polygon id="_Görbe_10" data-name="&lt;Görbe&gt;" class="cls-22" points="199.07 57.93 197.28 57.93 197.29 57.6 199.07 57.6 199.07 57.93"/><polygon id="_Görbe_11" data-name="&lt;Görbe&gt;" class="cls-22" points="199.06 59.09 197.28 59.09 197.28 58.76 199.07 58.76 199.06 59.09"/><polygon id="_Görbe_12" data-name="&lt;Görbe&gt;" class="cls-22" points="199.06 60.25 197.27 60.25 197.27 59.92 199.06 59.91 199.06 60.25"/><polygon id="_Görbe_13" data-name="&lt;Görbe&gt;" class="cls-22" points="199.05 61.41 197.26 61.41 197.26 61.08 199.05 61.08 199.05 61.41"/><polygon id="_Görbe_14" data-name="&lt;Görbe&gt;" class="cls-22" points="199.04 62.56 197.25 62.57 197.26 62.24 199.04 62.23 199.04 62.56"/><polygon id="_Görbe_15" data-name="&lt;Görbe&gt;" class="cls-22" points="199.03 63.73 197.25 63.73 197.25 63.4 199.04 63.39 199.03 63.73"/><polygon id="_Görbe_16" data-name="&lt;Görbe&gt;" class="cls-22" points="199.03 64.88 197.24 64.89 197.24 64.56 199.03 64.55 199.03 64.88"/><polygon id="_Görbe_17" data-name="&lt;Görbe&gt;" class="cls-22" points="199.02 66.04 197.23 66.05 197.24 65.72 199.02 65.71 199.02 66.04"/><polygon id="_Görbe_18" data-name="&lt;Görbe&gt;" class="cls-22" points="199.01 67.2 197.22 67.21 197.23 66.88 199.01 66.87 199.01 67.2"/><polygon id="_Görbe_19" data-name="&lt;Görbe&gt;" class="cls-22" points="199 68.36 197.22 68.37 197.22 68.03 199.01 68.03 199 68.36"/><polygon id="_Görbe_20" data-name="&lt;Görbe&gt;" class="cls-22" points="199 69.52 197.21 69.53 197.21 69.19 199 69.19 199 69.52"/><polygon id="_Görbe_21" data-name="&lt;Görbe&gt;" class="cls-22" points="198.99 70.68 197.2 70.69 197.21 70.35 198.99 70.35 198.99 70.68"/><polygon id="_Görbe_22" data-name="&lt;Görbe&gt;" class="cls-22" points="198.98 71.84 197.2 71.84 197.2 71.51 198.98 71.51 198.98 71.84"/><polygon id="_Görbe_23" data-name="&lt;Görbe&gt;" class="cls-22" points="198.97 73 197.19 73 197.19 72.67 198.98 72.67 198.97 73"/><polygon id="_Görbe_24" data-name="&lt;Görbe&gt;" class="cls-22" points="198.97 74.16 197.18 74.16 197.18 73.83 198.97 73.83 198.97 74.16"/></g></g><rect id="_Görbe_25" data-name="&lt;Görbe&gt;" class="cls-21" x="189.91" y="72.49" width="20.44" height="26.58"/><rect id="_Görbe_26" data-name="&lt;Görbe&gt;" class="cls-18" x="189.91" y="74.41" width="20.44" height="1.07"/><rect id="_Görbe_27" data-name="&lt;Görbe&gt;" class="cls-18" x="189.91" y="76.46" width="20.44" height="1.07"/><rect id="_Görbe_28" data-name="&lt;Görbe&gt;" class="cls-18" x="189.91" y="78.51" width="20.44" height="1.07"/><rect id="_Görbe_29" data-name="&lt;Görbe&gt;" class="cls-18" x="189.91" y="80.69" width="20.44" height="1.07"/><rect id="_Görbe_30" data-name="&lt;Görbe&gt;" class="cls-18" x="189.91" y="82.86" width="20.44" height="1.07"/></g><g id="books"><rect class="cls-10" x="59.82" y="93.26" width="41.45" height="6.42" rx="0.78" ry="0.78"/><rect class="cls-27" x="65.59" y="93.26" width="1.56" height="6.42"/><rect class="cls-27" x="67.84" y="93.26" width="1.56" height="6.42"/><rect class="cls-9" x="59.82" y="78.65" width="41.45" height="9.92" rx="0.78" ry="0.78"/><rect class="cls-4" x="59.82" y="88.56" width="41.45" height="4.69" rx="0.78" ry="0.78"/></g><path class="cls-20" d="M104.11,88.94v.76A6.1,6.1,0,0,1,98,95.78H92a6.09,6.09,0,0,1-6.07-6.08V77.55h18.22Z" transform="translate(-13.87 -17.15)"/><path class="cls-10" d="M104.11,77.55V80a3.77,3.77,0,0,1,0,7.48V89.7c0,.11,0,.21,0,.32A6.32,6.32,0,0,0,110,83.73C110,78.14,104.11,77.55,104.11,77.55Z" transform="translate(-13.87 -17.15)"/><rect class="cls-2" x="72.01" y="55.85" width="18.22" height="4.56"/><polygon class="cls-2" points="82.47 66.17 80.95 64.15 79.43 66.17 77.92 68.19 77.92 72.87 83.98 72.87 83.98 68.19 82.47 66.17"/><polygon class="cls-18" points="80.95 64.15 81.3 64.61 81.3 55.62 80.6 55.62 80.6 64.61 80.95 64.15"/><rect class="cls-28" x="79.03" y="68.49" width="3.71" height="0.7"/><rect class="cls-28" x="79.03" y="69.88" width="3.71" height="0.7"/><circle class="cls-29" cx="67.54" cy="84" r="2.47"/><rect class="cls-29" x="72.35" y="83.32" width="17.16" height="1.5"/><polygon class="cls-30" points="277.39 19.97 277.39 10.84 286.52 10.84 295.65 10.84 295.65 19.97 277.39 19.97"/><polygon class="cls-30" points="42.12 17.29 42.12 26.93 32.47 26.93 22.83 26.93 22.83 17.29 42.12 17.29"/><polygon class="cls-30" points="42.12 39.41 42.12 49.05 32.47 49.05 22.83 49.05 22.83 39.41 42.12 39.41"/><polygon class="cls-30" points="32.47 28.21 32.47 37.86 22.83 37.86 13.19 37.86 13.19 28.21 32.47 28.21"/><rect class="cls-9" x="20.27" y="81.44" width="20.06" height="10.97"/><path class="cls-31" d="M45.42,106.51H42.78l-.46,1.5H40.26l2.93-8H45l3,8H45.89ZM43.24,105H45l-.86-2.77Z" transform="translate(-13.87 -17.15)"/><g id="_Csoport_6" data-name="&lt;Csoport&gt;"><g id="_Csoport_7" data-name="&lt;Csoport&gt;"><path id="_Görbe_31" data-name="&lt;Görbe&gt;" class="cls-9" d="M128.74,226.46H61.37V182.19a5.85,5.85,0,0,1,5.84-5.84h55.47a6.06,6.06,0,0,1,6.06,6.07Z" transform="translate(-13.87 -17.15)"/><path id="_Görbe_32" data-name="&lt;Görbe&gt;" class="cls-8" d="M61.37,197.09c9.11,2.69,20.86,4.32,33.69,4.32s24.58-1.63,33.68-4.32V181.76a5.41,5.41,0,0,0-5.4-5.41H66.78a5.41,5.41,0,0,0-5.41,5.41Z" transform="translate(-13.87 -17.15)"/><g id="_Csoport_8" data-name="&lt;Csoport&gt;"><path id="_Összetett_görbe_2" data-name="&lt;Összetett görbe&gt;" class="cls-2" d="M73.43,195.2v10.46H79V195.2ZM76.2,204a1,1,0,1,1,1-1A1,1,0,0,1,76.2,204Z" transform="translate(-13.87 -17.15)"/></g><g id="_Csoport_9" data-name="&lt;Csoport&gt;"><path id="_Összetett_görbe_3" data-name="&lt;Összetett görbe&gt;" class="cls-2" d="M111.6,195.2v10.46h5.54V195.2Zm2.77,8.79a1,1,0,1,1,1-1A1,1,0,0,1,114.37,204Z" transform="translate(-13.87 -17.15)"/></g></g></g><path class="cls-7" d="M113.08,176.35h-1.26V174.4a3.93,3.93,0,0,0-3.92-3.93H82.81a3.93,3.93,0,0,0-3.92,3.93v1.95H77.63V174.4a5.19,5.19,0,0,1,5.18-5.19H107.9a5.19,5.19,0,0,1,5.18,5.19Z" transform="translate(-13.87 -17.15)"/><g id="_Csoport_10" data-name="&lt;Csoport&gt;"><rect id="_Görbe_33" data-name="&lt;Görbe&gt;" class="cls-6" x="69.51" y="151.09" width="23.82" height="3.21"/></g><rect class="cls-20" x="47.5" y="204.94" width="67.37" height="4.37"/><path class="cls-6" d="M68.39,226a6.73,6.73,0,0,0-6.73-6.72h-.29v7.22h7C68.37,226.29,68.39,226.13,68.39,226Z" transform="translate(-13.87 -17.15)"/><path class="cls-6" d="M121.68,226a6.73,6.73,0,0,1,6.73-6.72h.29v7.22h-7C121.7,226.29,121.68,226.13,121.68,226Z" transform="translate(-13.87 -17.15)"/><g id="_Csoport_11" data-name="&lt;Csoport&gt;"><g id="_Csoport_12" data-name="&lt;Csoport&gt;"><g id="_Csoport_13" data-name="&lt;Csoport&gt;"><g id="_Csoport_14" data-name="&lt;Csoport&gt;"><g id="_Csoport_15" data-name="&lt;Csoport&gt;"><rect id="_Téglalap_2" data-name="&lt;Téglalap&gt;" class="cls-2" x="174.21" y="88.96" width="16.03" height="10.11"/></g></g></g></g><g id="_Csoport_16" data-name="&lt;Csoport&gt;"><rect id="_Téglalap_3" data-name="&lt;Téglalap&gt;" class="cls-5" x="190.09" y="109.55" width="2.52" height="2.52" transform="translate(120.55 -120) rotate(45.01)"/></g><g id="_Csoport_17" data-name="&lt;Csoport&gt;"><rect id="_Téglalap_4" data-name="&lt;Téglalap&gt;" class="cls-4" x="190.09" y="110.12" width="2.52" height="2.52" transform="translate(120.95 -119.84) rotate(45.01)"/></g><g id="_Csoport_18" data-name="&lt;Csoport&gt;"><g id="_Csoport_19" data-name="&lt;Csoport&gt;"><g id="_Csoport_20" data-name="&lt;Csoport&gt;" class="cls-32"><rect id="_Görbe_34" data-name="&lt;Görbe&gt;" class="cls-7" x="179.86" y="93.11" width="8.69" height="0.5"/></g></g><g id="_Csoport_21" data-name="&lt;Csoport&gt;"><g id="_Csoport_22" data-name="&lt;Csoport&gt;" class="cls-32"><rect id="_Görbe_35" data-name="&lt;Görbe&gt;" class="cls-7" x="179.86" y="94.25" width="8.69" height="0.5"/></g></g></g></g><path class="cls-33" d="M186.94,112.91a13.31,13.31,0,0,0-9-3.56H153.37l3.52,6.94H170s-.2,1.84,7.05,1.84c1.15,0,1.94.57,1.94,1.63,0,1.81.94,1.94,1.53,1.94.44,0,.87-.29.87-1.85a6.21,6.21,0,0,0-1.31-3.58h.55c.37.43.67.83.92,1.13a6.4,6.4,0,0,1,1.09,2.5c.09.8.43,1.89,1.24,1.93.59,0,1.38,0,1.38-1.71a5.13,5.13,0,0,0-.59-2.29c1.6,1.73,3.3,3.43,4,3.67a3.84,3.84,0,0,0,.85.16,1.05,1.05,0,0,0,.78-1.8l-1.39-1.39a17.32,17.32,0,0,0,3,2.52c1.31.58,1.81-.34,1.81-.34C194.67,119.42,190.47,116.42,186.94,112.91Z" transform="translate(-13.87 -17.15)"/><path class="cls-18" d="M249.67,90.36l-17.91-.21L228,114.05h24.7Zm-9.3,11.46a3.34,3.34,0,1,1,3.34-3.34A3.34,3.34,0,0,1,240.37,101.82Z" transform="translate(-13.87 -17.15)"/></svg>