<svg id="Layer" xmlns="http://www.w3.org/2000/svg" xmlns:xlink="http://www.w3.org/1999/xlink" viewBox="0 0 309.12 186.32"><defs><style>.cls-1,.cls-16{fill:#6b4997;}.cls-1{opacity:0.2;}.cls-2,.cls-9{fill:#1d1b37;}.cls-2,.cls-21,.cls-23,.cls-5{fill-rule:evenodd;}.cls-3{fill:#ffce44;}.cls-4{fill:url(#Névtelen_színátmenet_70);}.cls-5{fill:url(#Névtelen_színátmenet_70-2);}.cls-6{fill:url(#Névtelen_színátmenet_70-3);}.cls-22,.cls-23,.cls-7{fill:#734139;}.cls-7{opacity:0.5;}.cls-8{fill:url(#Névtelen_színátmenet_70-4);}.cls-10{fill:#e7eced;}.cls-11,.cls-19,.cls-21{fill:#fff;}.cls-12{fill:#cbced8;}.cls-13{fill:#e9ecf8;}.cls-14{fill:#999ea3;}.cls-15{fill:#f29277;}.cls-17{fill:#4b2583;}.cls-18{fill:#eaebec;}.cls-19{opacity:0.3;}.cls-20{fill:#da775e;}.cls-24{fill:#fad69d;}</style><linearGradient id="Névtelen_színátmenet_70" x1="243" y1="62.8" x2="245.44" y2="62.8" gradientUnits="userSpaceOnUse"><stop offset="0" stop-color="#8e5f51"/><stop offset="0.39" stop-color="#885a4c"/><stop offset="0.89" stop-color="#794c40"/><stop offset="1" stop-color="#74483c"/></linearGradient><linearGradient id="Névtelen_színátmenet_70-2" x1="199.37" y1="64.78" x2="243.17" y2="64.78" xlink:href="#Névtelen_színátmenet_70"/><linearGradient id="Névtelen_színátmenet_70-3" x1="221.44" y1="101.16" x2="221.44" y2="85.53" xlink:href="#Névtelen_színátmenet_70"/><linearGradient id="Névtelen_színátmenet_70-4" x1="196.08" y1="62.93" x2="199.46" y2="62.93" xlink:href="#Névtelen_színátmenet_70"/></defs><title>eezy_25</title><path class="cls-1" d="M263.8,114.14v12.72h58.25a82.21,82.21,0,0,0,.5-9c0-1.23,0-2.45-.1-3.67Z" transform="translate(-13.43 -24.13)"/><path class="cls-1" d="M263.8,174.26h33q2.91-2.53,5.46-5.22H272.87a2.47,2.47,0,0,1-2.47-2.47V147.78a2.47,2.47,0,0,1,2.47-2.47l41.25.06a2.47,2.47,0,0,1,2.44,2.25,71.67,71.67,0,0,0,5.2-18.53h-58Zm19.34-38.18a3.32,3.32,0,0,1,3.3-3.3h14a3.32,3.32,0,0,1,3.31,3.3h0a3.32,3.32,0,0,1-3.31,3.31h-14a3.32,3.32,0,0,1-3.3-3.31Z" transform="translate(-13.43 -24.13)"/><ellipse class="cls-1" cx="154.56" cy="93.67" rx="154.56" ry="90.9"/><path class="cls-2" d="M194.15,106.67V51.11a27,27,0,0,1,54,0h0v55.56Z" transform="translate(-13.43 -24.13)"/><path class="cls-3" d="M206.91,100.42v-.08l55.28.08c-1-4.38-3-7.21-7-8.27C247.07,90,232,85.83,232,85.83v.59a5.87,5.87,0,0,1-5.87,5.87h-8.88a5.86,5.86,0,0,1-5.86-5.87v-.59S196.64,90,188.48,92.15c-3.91,1-6,3.88-7.08,8.24Z" transform="translate(-13.43 -24.13)"/><path class="cls-4" d="M243,59.1v6.61c0,.26,0,.52,0,.79a4,4,0,0,0,0-7.4Z" transform="translate(-13.43 -24.13)"/><path class="cls-5" d="M243,52.31H220.34c-16,0-20-10.09-20.77-11.43l-.15,9.17v4.37l0,0V65c0,13,9.85,23.71,21.9,23.71S243.17,78,243.17,65Z" transform="translate(-13.43 -24.13)"/><path class="cls-6" d="M221.27,88.68a20.45,20.45,0,0,1-10.53-2.94v5.85c0,5,4.07,9.57,9.09,9.57H223c5,0,9.09-4.55,9.09-9.57V85.53A20.43,20.43,0,0,1,221.27,88.68Z" transform="translate(-13.43 -24.13)"/><path class="cls-7" d="M221.27,88.68a20.45,20.45,0,0,1-10.53-2.94v5.85a9.82,9.82,0,0,0,.11,1.34,20.25,20.25,0,0,0,21.21-.22,10.36,10.36,0,0,0,.07-1.12V85.53A20.43,20.43,0,0,1,221.27,88.68Z" transform="translate(-13.43 -24.13)"/><path class="cls-8" d="M199.4,65.94V58.83a4.18,4.18,0,0,0,.06,8.19C199.44,66.66,199.4,66.3,199.4,65.94Z" transform="translate(-13.43 -24.13)"/><path class="cls-9" d="M229.78,62.71a9.2,9.2,0,0,0,2.35,0,5.41,5.41,0,0,0,1.07-.27,5.28,5.28,0,0,0,1-.49l.14-.08h.08a11.47,11.47,0,0,1,2.45.34,12.08,12.08,0,0,1-2.44.41l.22-.07a3.88,3.88,0,0,1-2.44.9A4,4,0,0,1,229.78,62.71Z" transform="translate(-13.43 -24.13)"/><path class="cls-9" d="M212.46,62.71a4,4,0,0,1-2.42.73,4,4,0,0,1-2.45-.9l.24.08a13.5,13.5,0,0,1-2.59-.38,12.77,12.77,0,0,1,2.59-.39h.08l.15.08a5.19,5.19,0,0,0,1,.49,4.8,4.8,0,0,0,1.07.27A9.28,9.28,0,0,0,212.46,62.71Z" transform="translate(-13.43 -24.13)"/><path class="cls-10" d="M69.38,163.37v3a3.44,3.44,0,0,0,3.4,3.47H196.86a3.44,3.44,0,0,0,3.4-3.47v-3Z" transform="translate(-13.43 -24.13)"/><path class="cls-11" d="M196.86,78.13H72.78a3.43,3.43,0,0,0-3.4,3.47v81.77H200.26V81.6A3.43,3.43,0,0,0,196.86,78.13Z" transform="translate(-13.43 -24.13)"/><path class="cls-12" d="M114,186.88h41.87c-1.6-.53-6.87-2.56-7.28-6.79l-.08-36.87H121.17l.08,36.87C120.83,184.32,115.57,186.35,114,186.88Z" transform="translate(-13.43 -24.13)"/><circle class="cls-13" cx="122.92" cy="93.57" r="7.2"/><rect class="cls-14" x="1.27" y="162.85" width="306.58" height="10.82"/><rect class="cls-12" x="15.51" y="173.75" width="278.09" height="6.28"/><rect class="cls-13" x="15.51" y="180.04" width="278.09" height="6.28"/><g id="_11" data-name="11"><polygon class="cls-15" points="251.34 76.29 193.48 76.21 193.48 76.29 135.24 76.21 135.11 162.66 196.5 162.75 196.5 162.67 251.21 162.75 251.34 76.29"/><path class="cls-11" d="M150.72,105.85a3,3,0,0,1,3-3h48.51a3,3,0,0,1,3,3v75.87a3,3,0,0,1-3,3H153.7a3,3,0,0,1-3-3Z" transform="translate(-13.43 -24.13)"/><path class="cls-11" d="M207.94,105.85a3,3,0,0,1,3-3h48.51a3,3,0,0,1,3,3v75.87a3,3,0,0,1-3,3H210.92a3,3,0,0,1-3-3Z" transform="translate(-13.43 -24.13)"/><path class="cls-14" d="M210,108.3a.58.58,0,0,1-.58.58H204a.58.58,0,0,1-.58-.58v-.15a.58.58,0,0,1,.58-.58h5.4a.58.58,0,0,1,.58.58Z" transform="translate(-13.43 -24.13)"/><path class="cls-14" d="M210,110.27a.58.58,0,0,1-.58.58H204a.58.58,0,0,1-.58-.58v-.15a.58.58,0,0,1,.58-.58h5.4a.6.6,0,0,1,.58.59Z" transform="translate(-13.43 -24.13)"/><path class="cls-14" d="M210,115.51a.58.58,0,0,1-.58.59H204a.58.58,0,0,1-.58-.58v-.15a.58.58,0,0,1,.58-.58h5.4a.58.58,0,0,1,.58.59Z" transform="translate(-13.43 -24.13)"/><path class="cls-14" d="M210,117.48a.42.42,0,0,1-.62.42H204c-.29.17-.55-.09-.55-.42v-.14a.58.58,0,0,1,.58-.59h5.4a.58.58,0,0,1,.58.59Z" transform="translate(-13.43 -24.13)"/><path class="cls-14" d="M210,122.08a.58.58,0,0,1-.58.58H204a.58.58,0,0,1-.58-.58v-.15a.58.58,0,0,1,.58-.58h5.4a.58.58,0,0,1,.58.58Z" transform="translate(-13.43 -24.13)"/><path class="cls-14" d="M210,124a.57.57,0,0,1-.58.58H204a.58.58,0,0,1-.58-.59v-.14a.57.57,0,0,1,.58-.58h5.4a.59.59,0,0,1,.58.59Z" transform="translate(-13.43 -24.13)"/><path class="cls-14" d="M210,129.29a.57.57,0,0,1-.58.58H204a.59.59,0,0,1-.58-.59v-.14a.58.58,0,0,1,.58-.59h5.4a.58.58,0,0,1,.58.58Z" transform="translate(-13.43 -24.13)"/><path class="cls-14" d="M210,131.26a.58.58,0,0,1-.58.58H204a.57.57,0,0,1-.58-.58v-.15a.58.58,0,0,1,.58-.58h5.4a.58.58,0,0,1,.58.58Z" transform="translate(-13.43 -24.13)"/><path class="cls-14" d="M210,135.85a.58.58,0,0,1-.58.59H204a.58.58,0,0,1-.58-.58v-.15a.58.58,0,0,1,.58-.58h5.4a.58.58,0,0,1,.58.59Z" transform="translate(-13.43 -24.13)"/><path class="cls-14" d="M210,137.82a.58.58,0,0,1-.59.58H204a.6.6,0,0,1-.58-.59v-.14a.58.58,0,0,1,.58-.59h5.4a.58.58,0,0,1,.58.58Z" transform="translate(-13.43 -24.13)"/><path class="cls-14" d="M210,143.07a.58.58,0,0,1-.58.58H204a.58.58,0,0,1-.58-.58v-.15a.58.58,0,0,1,.58-.58h5.4a.58.58,0,0,1,.58.58Z" transform="translate(-13.43 -24.13)"/><path class="cls-14" d="M210,145a.58.58,0,0,1-.59.58H204a.57.57,0,0,1-.58-.58v-.15a.58.58,0,0,1,.58-.58h5.4a.58.58,0,0,1,.58.58Z" transform="translate(-13.43 -24.13)"/><path class="cls-14" d="M210,150.29a.58.58,0,0,1-.58.58H204a.58.58,0,0,1-.58-.58v-.15a.58.58,0,0,1,.58-.58h5.4a.58.58,0,0,1,.58.58Z" transform="translate(-13.43 -24.13)"/><path class="cls-14" d="M210,152.26a.59.59,0,0,1-.59.58H204a.57.57,0,0,1-.58-.58v-.15a.58.58,0,0,1,.58-.58h5.4a.57.57,0,0,1,.58.58Z" transform="translate(-13.43 -24.13)"/><path class="cls-14" d="M209.94,156.85a.58.58,0,0,1-.58.58H204a.58.58,0,0,1-.58-.58v-.15a.58.58,0,0,1,.58-.58h5.4a.58.58,0,0,1,.58.58Z" transform="translate(-13.43 -24.13)"/><path class="cls-14" d="M209.94,158.82a.58.58,0,0,1-.59.58H204a.58.58,0,0,1-.58-.58v-.15a.6.6,0,0,1,.59-.58h5.4a.58.58,0,0,1,.58.58Z" transform="translate(-13.43 -24.13)"/><path class="cls-14" d="M209.93,164.07a.58.58,0,0,1-.58.58H204a.58.58,0,0,1-.58-.58v-.15a.58.58,0,0,1,.58-.58h5.4a.59.59,0,0,1,.58.59Z" transform="translate(-13.43 -24.13)"/><path class="cls-14" d="M209.93,166a.57.57,0,0,1-.59.58h-5.4a.57.57,0,0,1-.57-.59v-.14a.58.58,0,0,1,.58-.59h5.4a.58.58,0,0,1,.58.59Z" transform="translate(-13.43 -24.13)"/><path class="cls-14" d="M209.92,170.63a.58.58,0,0,1-.58.58h-5.4a.58.58,0,0,1-.58-.58v-.15a.58.58,0,0,1,.58-.58h5.4a.6.6,0,0,1,.58.59Z" transform="translate(-13.43 -24.13)"/><path class="cls-14" d="M209.92,172.6a.58.58,0,0,1-.59.58h-5.39a.57.57,0,0,1-.58-.58v-.15a.59.59,0,0,1,.59-.58h5.4a.6.6,0,0,1,.58.59Z" transform="translate(-13.43 -24.13)"/><path class="cls-14" d="M209.91,177.84a.57.57,0,0,1-.58.58h-5.4a.58.58,0,0,1-.58-.58v-.15a.57.57,0,0,1,.58-.58h5.4a.58.58,0,0,1,.58.59Z" transform="translate(-13.43 -24.13)"/><path class="cls-14" d="M209.91,179.81a.59.59,0,0,1-.59.58h-5.39a.58.58,0,0,1-.58-.59v-.15a.58.58,0,0,1,.58-.58h5.4a.58.58,0,0,1,.58.58Z" transform="translate(-13.43 -24.13)"/></g><path class="cls-13" d="M201.75,108.22v-.46H153.29v18h0v.46h0v5.54h0v.46h0v11.46h0v18h0v.46h0v5.54h0v.46h0v12h48.46V144.23h0v-.09h0v-.46h0V108.22Zm-6,0h5.54v5.54h-5.54Zm0,6h5.54v5.53h-5.54Zm0,6h5.54v5.53h-5.54Zm0,6h5.54v5.53h-5.54Zm0,6h5.54v5.54h-5.54Zm5.54,6v5.46h-5.54v-5.46Zm-11.54-30h5.54v5.54h-5.54Zm0,6h5.54v5.53h-5.54Zm0,6h5.54v5.53h-5.54Zm0,6h5.54v5.53h-5.54Zm0,6h5.54v5.54h-5.54Zm5.54,6v5.46h-5.54v-5.46Zm-11.54-30h5.54v5.54h-5.54Zm0,6h5.54v5.53h-5.54Zm0,6h5.54v5.53h-5.54Zm0,6h5.54v5.53h-5.54Zm0,6h5.54v5.54h-5.54Zm5.54,6v5.46h-5.54v-5.46Zm-11.54-30h5.54v5.54h-5.54Zm0,6h5.54v5.53h-5.54Zm0,6h5.54v5.53h-5.54Zm0,6h5.54v5.54h-5.54Zm0,6h5.54v5.54h-5.54Zm5.54,6v5.46h-5.54v-5.46Zm-17.54,5.46v-5.46h5.54v5.46Zm5.54-11.46v5.54h-5.54v-5.54Zm-5.54-.46v-5.54h5.54v5.54Zm6-23.54h5.54v5.54h-5.54Zm0,6h5.54v5.53h-5.54Zm0,6h5.54v5.53h-5.54Zm0,6h5.54v5.54h-5.54Zm0,6h5.54v5.54h-5.54Zm5.54,6v5.46h-5.54v-5.46Zm-11.54-30h5.54v5.54h-5.54Zm0,6h5.54v5.53h-5.54Zm5.54,6v5.54h-5.54v-5.54Zm-11.54-12h5.54v5.54h-5.54Zm0,6h5.54v5.53h-5.54Zm0,6h5.54v5.54h-5.54Zm0,6h5.54v5.54h-5.54Zm0,6h5.54v5.54h-5.54Zm5.54,6v5.46h-5.54v-5.46Zm-5.54,17.92h5.54v5.54h-5.54Zm0-.46v-5.54h5.54v5.54Zm0-6v-5.45h5.54v5.45Zm-6-41.46h5.54v5.54h-5.54Zm0,6h5.54v5.53h-5.54Zm0,6h5.54v5.54h-5.54Zm0,6h5.54v5.54h-5.54Zm0,6h5.54v5.54h-5.54Zm0,6h5.54v5.46h-5.54Zm5.54,41.47h-5.54v-5.55h5.54Zm0-6h-5.54v-5.54h5.54Zm0-6h-5.54v-5.54h5.54Zm0-6h-5.54v-5.54h5.54Zm0-6h-5.54v-5.54h5.54Zm-5.54-6v-5.45h5.54v5.45Zm11.54,30h-5.54v-5.55h5.54Zm0-6h-5.54v-5.54h5.54Zm-5.54-6v-5.54h5.54v5.54Zm11.54,12h-5.54v-5.55h5.54Zm0-6h-5.54v-5.54h5.54Zm0-6h-5.54v-5.54h5.54Zm0-6h-5.54v-5.54h5.54Zm0-6h-5.54v-5.54h5.54Zm-5.54-6v-5.45h5.54v5.45Zm11.54,30h-5.54v-5.55h5.54Zm0-6h-5.54v-5.54h5.54Zm0-6h-5.54v-5.54h5.54Zm0-6h-5.54v-5.54h5.54Zm0-6h-5.54v-5.54h5.54Zm-5.54-6v-5.45h5.54v5.45Zm11.54,30h-5.54v-5.55h5.54Zm0-6h-5.54v-5.54h5.54Zm0-6h-5.54v-5.54h5.54Zm0-6h-5.54v-5.54h5.54Zm0-6h-5.54v-5.54h5.54Zm0-6h-5.54v-5.45h5.54Zm6,30h-5.54v-5.55h5.54Zm0-6h-5.54v-5.54h5.54Zm0-6h-5.54v-5.54h5.54Zm0-6h-5.54v-5.54h5.54Zm0-6h-5.54v-5.54h5.54Zm0-6h-5.54v-5.45h5.54Zm6,30h-5.54v-5.55h5.54Zm0-6h-5.54v-5.54h5.54Zm0-6h-5.54v-5.54h5.54Zm0-6h-5.54v-5.54h5.54Zm0-6h-5.54v-5.54h5.54Zm0-6h-5.54v-5.45h5.54Zm6,30h-5.54v-5.55h5.54Zm0-6h-5.54v-5.54h5.54Zm0-6h-5.54v-5.54h5.54Zm0-6h-5.54v-5.54h5.54Zm0-6h-5.54v-5.54h5.54Zm0-6h-5.54v-5.45h5.54Z" transform="translate(-13.43 -24.13)"/><path class="cls-13" d="M259.92,108.22v-.46H211.46v18h0v.46h0v5.54h0v.46h0v11.46h0v18h0v.46h0v5.54h0v.46h0v12h48.46V144.23h0v-.09h0v-.46h0V108.22Zm-6,0h5.54v5.54h-5.54Zm0,6h5.54v5.53h-5.54Zm0,6h5.54v5.53h-5.54Zm0,6h5.54v5.53h-5.54Zm0,6h5.54v5.54h-5.54Zm5.54,6v5.46h-5.54v-5.46Zm-11.54-30h5.54v5.54h-5.54Zm0,6h5.54v5.53h-5.54Zm0,6h5.54v5.53h-5.54Zm0,6h5.54v5.53h-5.54Zm0,6h5.54v5.54h-5.54Zm5.54,6v5.46h-5.54v-5.46Zm-11.54-30h5.54v5.54h-5.54Zm0,6h5.54v5.53h-5.54Zm0,6h5.54v5.53h-5.54Zm0,6h5.54v5.53h-5.54Zm0,6h5.54v5.54h-5.54Zm5.54,6v5.46h-5.54v-5.46Zm-11.54-30h5.54v5.54h-5.54Zm0,6h5.54v5.53h-5.54Zm0,6h5.54v5.53h-5.54Zm0,6h5.54v5.54h-5.54Zm0,6h5.54v5.54h-5.54Zm5.54,6v5.46h-5.54v-5.46Zm-17.54,5.46v-5.46h5.54v5.46Zm5.54-11.46v5.54h-5.54v-5.54Zm-5.54-.46v-5.54h5.54v5.54Zm6-23.54h5.54v5.54h-5.54Zm0,6h5.54v5.53h-5.54Zm0,6h5.54v5.53h-5.54Zm0,6h5.54v5.54h-5.54Zm0,6h5.54v5.54h-5.54Zm5.54,6v5.46h-5.54v-5.46Zm-11.54-30h5.54v5.54h-5.54Zm0,6h5.54v5.53h-5.54Zm5.54,6v5.54h-5.54v-5.54Zm-11.54-12h5.54v5.54h-5.54Zm0,6h5.54v5.53h-5.54Zm0,6h5.54v5.54h-5.54Zm0,6h5.54v5.54h-5.54Zm0,6h5.54v5.54h-5.54Zm5.54,6v5.46h-5.54v-5.46Zm-5.54,17.92h5.54v5.54h-5.54Zm0-.46v-5.54h5.54v5.54Zm0-6v-5.45h5.54v5.45Zm-6-41.46h5.54v5.54h-5.54Zm0,6h5.54v5.53h-5.54Zm0,6h5.54v5.54h-5.54Zm0,6h5.54v5.54h-5.54Zm0,6h5.54v5.54h-5.54Zm0,6h5.54v5.46h-5.54Zm5.54,41.47h-5.54v-5.55h5.54Zm0-6h-5.54v-5.54h5.54Zm0-6h-5.54v-5.54h5.54Zm0-6h-5.54v-5.54h5.54Zm0-6h-5.54v-5.54h5.54Zm-5.54-6v-5.45h5.54v5.45Zm11.54,30h-5.54v-5.55h5.54Zm0-6h-5.54v-5.54h5.54Zm-5.54-6v-5.54h5.54v5.54Zm11.54,12h-5.54v-5.55h5.54Zm0-6h-5.54v-5.54h5.54Zm0-6h-5.54v-5.54h5.54Zm0-6h-5.54v-5.54h5.54Zm0-6h-5.54v-5.54h5.54Zm-5.54-6v-5.45h5.54v5.45Zm11.54,30h-5.54v-5.55h5.54Zm0-6h-5.54v-5.54h5.54Zm0-6h-5.54v-5.54h5.54Zm0-6h-5.54v-5.54h5.54Zm0-6h-5.54v-5.54h5.54Zm-5.54-6v-5.45h5.54v5.45Zm11.54,30h-5.54v-5.55h5.54Zm0-6h-5.54v-5.54h5.54Zm0-6h-5.54v-5.54h5.54Zm0-6h-5.54v-5.54h5.54Zm0-6h-5.54v-5.54h5.54Zm0-6h-5.54v-5.45h5.54Zm6,30h-5.54v-5.55h5.54Zm0-6h-5.54v-5.54h5.54Zm0-6h-5.54v-5.54h5.54Zm0-6h-5.54v-5.54h5.54Zm0-6h-5.54v-5.54h5.54Zm0-6h-5.54v-5.45h5.54Zm6,30h-5.54v-5.55h5.54Zm0-6h-5.54v-5.54h5.54Zm0-6h-5.54v-5.54h5.54Zm0-6h-5.54v-5.54h5.54Zm0-6h-5.54v-5.54h5.54Zm0-6h-5.54v-5.45h5.54Zm6,30h-5.54v-5.55h5.54Zm0-6h-5.54v-5.54h5.54Zm0-6h-5.54v-5.54h5.54Zm0-6h-5.54v-5.54h5.54Zm0-6h-5.54v-5.54h5.54Zm0-6h-5.54v-5.45h5.54Z" transform="translate(-13.43 -24.13)"/><rect class="cls-16" x="208.88" y="141.97" width="86.54" height="3.28" transform="translate(94.82 371.47) rotate(-89.93)"/><path class="cls-9" d="M212.19,187.05V146.52a2.62,2.62,0,0,1,2.62-2.62H318.4a2.62,2.62,0,0,1,2.62,2.62v40.53Z" transform="translate(-13.43 -24.13)"/><rect class="cls-11" x="202.34" y="123.44" width="5.42" height="5.57"/><rect class="cls-11" x="291.46" y="130.77" width="5.42" height="5.57"/><rect class="cls-11" x="284.33" y="130.77" width="5.42" height="5.57"/><rect class="cls-11" x="277.2" y="130.77" width="5.42" height="5.57"/><rect class="cls-11" x="270.07" y="130.77" width="5.42" height="5.57"/><rect class="cls-11" x="262.94" y="130.77" width="5.42" height="5.57"/><rect class="cls-11" x="255.81" y="130.77" width="5.42" height="5.57"/><rect class="cls-11" x="248.68" y="130.77" width="5.42" height="5.57"/><rect class="cls-11" x="241.55" y="130.77" width="5.43" height="5.57"/><rect class="cls-11" x="234.42" y="130.77" width="5.42" height="5.57"/><rect class="cls-11" x="227.29" y="130.77" width="5.42" height="5.57"/><rect class="cls-11" x="220.16" y="130.77" width="5.42" height="5.57"/><rect class="cls-11" x="213.03" y="130.77" width="5.42" height="5.57"/><rect class="cls-11" x="214.75" y="138.09" width="5.42" height="5.57"/><rect class="cls-11" x="211.26" y="145.41" width="5.42" height="5.57"/><rect class="cls-11" x="218.39" y="145.41" width="5.42" height="5.57"/><rect class="cls-11" x="225.52" y="145.41" width="5.42" height="5.57"/><rect class="cls-11" x="232.65" y="145.41" width="5.42" height="5.57"/><rect class="cls-11" x="239.78" y="145.41" width="5.43" height="5.57"/><rect class="cls-11" x="246.91" y="145.41" width="5.42" height="5.57"/><rect class="cls-11" x="254.04" y="145.41" width="5.42" height="5.57"/><rect class="cls-11" x="261.16" y="145.41" width="5.42" height="5.57"/><rect class="cls-11" x="268.29" y="145.41" width="5.42" height="5.57"/><rect class="cls-11" x="275.42" y="145.41" width="5.42" height="5.57"/><rect class="cls-11" x="282.55" y="145.41" width="5.42" height="5.57"/><rect class="cls-11" x="289.66" y="145.41" width="14.35" height="5.57"/><rect class="cls-11" x="221.88" y="138.09" width="5.42" height="5.57"/><rect class="cls-11" x="229.01" y="138.09" width="5.42" height="5.57"/><rect class="cls-11" x="236.13" y="138.09" width="5.42" height="5.57"/><rect class="cls-11" x="243.26" y="138.09" width="5.42" height="5.57"/><rect class="cls-11" x="250.39" y="138.09" width="5.42" height="5.57"/><rect class="cls-11" x="257.52" y="138.09" width="5.42" height="5.57"/><rect class="cls-11" x="264.64" y="138.09" width="5.42" height="5.57"/><rect class="cls-11" x="271.77" y="138.09" width="5.42" height="5.57"/><rect class="cls-11" x="278.9" y="138.09" width="5.42" height="5.57"/><rect class="cls-11" x="286.03" y="138.09" width="5.42" height="5.57"/><rect class="cls-11" x="293.15" y="138.09" width="5.42" height="5.57"/><rect class="cls-11" x="209.47" y="123.44" width="5.42" height="5.57"/><rect class="cls-11" x="216.59" y="123.44" width="5.42" height="5.57"/><rect class="cls-11" x="223.72" y="123.44" width="5.42" height="5.57"/><rect class="cls-11" x="230.85" y="123.44" width="5.42" height="5.57"/><rect class="cls-11" x="237.98" y="123.44" width="5.42" height="5.57"/><rect class="cls-11" x="245.11" y="123.44" width="5.42" height="5.57"/><rect class="cls-11" x="252.24" y="123.44" width="5.42" height="5.57"/><rect class="cls-11" x="259.37" y="123.44" width="5.42" height="5.57"/><rect class="cls-11" x="266.5" y="123.44" width="5.42" height="5.57"/><rect class="cls-11" x="273.63" y="123.44" width="5.42" height="5.57"/><rect class="cls-11" x="280.76" y="123.44" width="5.42" height="5.57"/><rect class="cls-11" x="287.88" y="123.44" width="5.42" height="5.57"/><rect class="cls-11" x="295.01" y="123.44" width="8.99" height="5.57"/><rect class="cls-11" x="202.34" y="130.76" width="8.99" height="5.57"/><rect class="cls-11" x="202.34" y="138.09" width="10.71" height="5.57"/><rect class="cls-11" x="202.34" y="145.41" width="7.23" height="5.57"/><rect class="cls-11" x="202.34" y="152.73" width="5.42" height="6.49"/><rect class="cls-11" x="209.44" y="152.73" width="5.43" height="6.49"/><rect class="cls-11" x="216.55" y="152.73" width="5.42" height="6.49"/><rect class="cls-11" x="223.66" y="152.73" width="7.28" height="6.49"/><rect class="cls-11" x="232.64" y="152.73" width="33.94" height="6.49"/><rect class="cls-11" x="268.29" y="152.73" width="7.28" height="6.49"/><rect class="cls-11" x="277.26" y="152.73" width="5.43" height="6.49"/><rect class="cls-11" x="284.39" y="156.2" width="5.42" height="3.03"/><polygon class="cls-11" points="291.48 152.72 291.48 154.44 291.48 155.57 291.48 159.23 296.91 159.23 296.91 155.57 296.91 154.44 296.91 152.72 291.48 152.72"/><rect class="cls-11" x="298.58" y="156.2" width="5.42" height="3.03"/><polygon class="cls-11" points="300.28 143.66 300.28 136.34 298.59 136.34 298.59 130.77 304.01 130.77 304.01 143.66 300.28 143.66"/><rect class="cls-17" x="24.42" y="107.58" width="11.18" height="73.81" transform="translate(-13.96 -24.02) rotate(-0.21)"/><rect class="cls-18" x="20.8" y="85.83" width="1.24" height="0.81"/><rect class="cls-18" x="34.25" y="112.4" width="1.24" height="0.81" transform="translate(-13.72 -24.05) rotate(-0.14)"/><rect class="cls-18" x="34.26" y="114.84" width="1.24" height="0.81" transform="translate(-13.82 -24.02) rotate(-0.19)"/><rect class="cls-18" x="34.26" y="117.27" width="1.24" height="0.81" transform="translate(-21.75 -21.34) rotate(-4.1)"/><polygon class="cls-18" points="18.93 96.4 18.93 95.58 22.07 95.57 22.08 96.39 18.93 96.4"/><polygon class="cls-18" points="20.85 98.83 20.85 98.01 22.08 98.01 22.09 98.82 20.85 98.83"/><rect class="cls-18" x="34.29" y="124.58" width="1.24" height="0.82" transform="translate(-13.86 -24.02) rotate(-0.19)"/><rect class="cls-18" x="34.3" y="127.02" width="1.24" height="0.81" transform="translate(-13.96 -23.99) rotate(-0.24)"/><rect class="cls-18" x="34.31" y="129.45" width="1.24" height="0.81" transform="translate(-14.31 -23.9) rotate(-0.39)"/><rect class="cls-18" x="32.41" y="131.89" width="3.15" height="0.81" transform="translate(-13.88 -24.02) rotate(-0.19)"/><polygon class="cls-18" points="20.89 111.01 20.89 110.19 22.13 110.19 22.13 111 20.89 111.01"/><rect class="cls-18" x="34.34" y="136.76" width="1.24" height="0.81" transform="translate(-14.02 -23.98) rotate(-0.24)"/><rect class="cls-18" x="34.35" y="139.2" width="1.24" height="0.81" transform="translate(-13.66 -24.08) rotate(-0.09)"/><rect class="cls-18" x="34.35" y="141.63" width="1.24" height="0.81" transform="translate(-14.16 -23.95) rotate(-0.29)"/><rect class="cls-18" x="32.45" y="144.07" width="3.15" height="0.81" transform="translate(-14.05 -23.99) rotate(-0.24)"/><rect class="cls-18" x="34.37" y="146.51" width="1.24" height="0.81" transform="translate(-14.31 -23.92) rotate(-0.34)"/><rect class="cls-18" x="34.38" y="148.94" width="1.24" height="0.81" transform="translate(-13.94 -24.02) rotate(-0.19)"/><polygon class="cls-18" points="20.96 128.06 20.95 127.25 22.19 127.24 22.19 128.05 20.96 128.06"/><polygon class="cls-18" points="20.97 130.5 20.96 129.68 22.2 129.68 22.2 130.49 20.97 130.5"/><polygon class="cls-18" points="19.07 132.94 19.06 132.13 22.21 132.11 22.21 132.93 19.07 132.94"/><polygon class="cls-18" points="20.98 135.37 20.98 134.55 22.22 134.55 22.22 135.36 20.98 135.37"/><rect class="cls-18" x="20.99" y="136.99" width="1.24" height="0.81"/><rect class="cls-18" x="34.44" y="163.56" width="1.24" height="0.82" transform="translate(-14.13 -23.98) rotate(-0.24)"/><rect class="cls-18" x="34.44" y="166" width="1.24" height="0.81" transform="translate(-14 -24.01) rotate(-0.19)"/><rect class="cls-18" x="32.54" y="168.44" width="3.15" height="0.81" transform="translate(-14.28 -23.96) rotate(-0.29)"/><polygon class="cls-18" points="21.03 147.55 21.03 146.74 22.26 146.73 22.27 147.54 21.03 147.55"/><rect class="cls-18" x="34.47" y="173.3" width="1.24" height="0.81" transform="translate(-14.9 -23.83) rotate(-0.48)"/><rect class="cls-18" x="34.48" y="175.74" width="1.24" height="0.81" transform="translate(-14.33 -23.95) rotate(-0.29)"/><rect class="cls-18" x="34.49" y="178.18" width="1.24" height="0.81" transform="translate(-13.88 -24.05) rotate(-0.14)"/><polygon class="cls-18" points="19.16 157.3 19.15 156.49 22.3 156.48 22.3 157.29 19.16 157.3"/><rect class="cls-19" x="24.42" y="107.59" width="5.59" height="73.81" transform="translate(-13.98 -24.03) rotate(-0.22)"/><path class="cls-15" d="M46.31,138.61V131a6.85,6.85,0,1,0-3.15-5.76v13.41ZM50,121.49a3.71,3.71,0,1,1-3.71,3.71A3.71,3.71,0,0,1,50,121.49Z" transform="translate(-13.43 -24.13)"/><path class="cls-14" d="M46.31,163.34V138.61H43.16v28.14C46.19,166.75,46.31,163.34,46.31,163.34Z" transform="translate(-13.43 -24.13)"/><path class="cls-15" d="M42.37,138.61V125.2A6.88,6.88,0,1,0,39.22,131v7.65ZM39.22,125.2a3.71,3.71,0,1,1-3.71-3.71A3.71,3.71,0,0,1,39.22,125.2Z" transform="translate(-13.43 -24.13)"/><path class="cls-14" d="M39.22,163.34V138.61h3.15v28.14C39.34,166.75,39.22,163.34,39.22,163.34Z" transform="translate(-13.43 -24.13)"/><path class="cls-9" d="M40.15,138.56a2.62,2.62,0,1,1,2.62,2.62A2.62,2.62,0,0,1,40.15,138.56Z" transform="translate(-13.43 -24.13)"/><polygon class="cls-9" points="34.17 162.75 10.63 162.63 6.67 120.65 37.95 120.65 34.17 162.75"/><path class="cls-20" d="M110.68,185.29h-1.86a1.08,1.08,0,0,1-1.11-1V173a1.09,1.09,0,0,1,1.11-1.06h1.86V169.8H23.44A3.26,3.26,0,0,0,20.1,173v11.27a3.26,3.26,0,0,0,3.34,3.17h87.24Z" transform="translate(-13.43 -24.13)"/><path class="cls-11" d="M108.82,171.91H23.44A1.09,1.09,0,0,0,22.33,173v11.27a1.08,1.08,0,0,0,1.11,1h85.38Z" transform="translate(-13.43 -24.13)"/><rect class="cls-18" x="8.89" y="149.55" width="86.49" height="0.75"/><rect class="cls-18" x="8.89" y="151.47" width="86.49" height="0.75"/><rect class="cls-18" x="8.89" y="153.38" width="86.49" height="0.75"/><rect class="cls-18" x="8.89" y="155.3" width="86.49" height="0.75"/><rect class="cls-18" x="8.89" y="157.21" width="86.49" height="0.75"/><rect class="cls-18" x="8.89" y="159.13" width="86.49" height="0.75"/><path class="cls-21" d="M213.43,75.18c2,1.1,13.13,1,15.11,0C226.82,81,215.71,81.14,213.43,75.18Z" transform="translate(-13.43 -24.13)"/><path class="cls-22" d="M218.49,82.65a13.59,13.59,0,0,1,5.19,0,13.59,13.59,0,0,1-5.19,0Z" transform="translate(-13.43 -24.13)"/><path class="cls-9" d="M232.31,59.18a.35.35,0,0,0-.36.35.36.36,0,0,0,.36.35h4.19a.35.35,0,0,0,.35-.35.35.35,0,0,0-.35-.35Z" transform="translate(-13.43 -24.13)"/><path class="cls-9" d="M209.41,59.88a.35.35,0,0,0,.35-.35.35.35,0,0,0-.35-.35h-4.2a.35.35,0,0,0-.35.35.35.35,0,0,0,.35.35Z" transform="translate(-13.43 -24.13)"/><path class="cls-23" d="M221,76c3.3,0,6.51-.28,7.51-.8a65.79,65.79,0,0,0-7.51-.31H221a65.9,65.9,0,0,0-7.52.31c1,.52,4.21.78,7.52.8H221Z" transform="translate(-13.43 -24.13)"/><path class="cls-23" d="M220.13,59.18v6.4a2.56,2.56,0,0,0-1.52.62,2.85,2.85,0,0,0,0,3.94,2,2,0,0,0,1.77.6,2.48,2.48,0,0,1-1.49-.91,2.68,2.68,0,0,1-.56-1.66,2,2,0,0,1,2.3-2.12V59.18Z" transform="translate(-13.43 -24.13)"/><path class="cls-1" d="M124.05,44.05V69.56h25.5V44.05Zm23.46,23.47H126.09V61.06h21.42ZM126.09,59V46.09h21.42V59Z" transform="translate(-13.43 -24.13)"/><path class="cls-1" d="M90.47,44.05V69.56H116V44.05Zm23.46,23.47H92.51V61.06h21.42ZM92.51,59V46.09h21.42V59Z" transform="translate(-13.43 -24.13)"/><polygon class="cls-1" points="37.63 66.33 37.63 76.35 17.59 76.35 17.59 66.33 27.61 66.33 37.63 66.33"/><polygon class="cls-1" points="55.94 78.42 55.94 88.43 40.02 88.43 40.02 78.42 47.98 78.42 55.94 78.42"/><polygon class="cls-1" points="48.8 54.55 48.8 64.56 38.78 64.56 28.77 64.56 28.77 54.55 48.8 54.55"/><path class="cls-1" d="M20.11,88v.68h20v-10H25.46A71.69,71.69,0,0,0,20.11,88Z" transform="translate(-13.43 -24.13)"/><polygon class="cls-1" points="270.94 66.33 270.94 76.35 290.97 76.35 290.97 66.33 280.96 66.33 270.94 66.33"/><polygon class="cls-1" points="251.39 78.42 251.39 88.43 268.55 88.43 268.55 78.42 259.97 78.42 251.39 78.42"/><polygon class="cls-1" points="259.77 54.55 259.77 64.56 269.78 64.56 279.8 64.56 279.8 54.55 259.77 54.55"/><path class="cls-1" d="M315.33,88v.68h-20v-10H310A72.86,72.86,0,0,1,315.33,88Z" transform="translate(-13.43 -24.13)"/><g id="mug"><g id="mug-2" data-name="mug"><path class="cls-3" d="M73.08,152.34c0,8.1,3.34,7.18,8.17,7.18V169.8h29.43V134.87H81.25v10.28C76.42,145.15,73.08,144.23,73.08,152.34Zm2.24,0c0-5.83,1.17-5,5.93-5v9.89C76.49,157.28,75.32,158.16,75.32,152.34Z" transform="translate(-13.43 -24.13)"/><rect class="cls-24" x="67.78" y="110.71" width="29.38" height="3.67"/><path class="cls-11" d="M99.42,148H96.36V134.84H95.23V148H92.17a1.51,1.51,0,0,0-1.51,1.52v8.83a1.51,1.51,0,0,0,1.51,1.52h7.25a1.52,1.52,0,0,0,1.52-1.52v-8.83A1.52,1.52,0,0,0,99.42,148Z" transform="translate(-13.43 -24.13)"/><rect class="cls-12" x="77.22" y="125.28" width="10.28" height="2.13"/></g></g><path class="cls-9" d="M169.54,187c0-7.41-9.2-12.36-17.21-12.36s-17.2,5-17.2,12.36Z" transform="translate(-13.43 -24.13)"/><path class="cls-14" d="M152.08,177.76a1.16,1.16,0,0,0,1.16-1.15v-2l-.91,0c-.46,0-.93,0-1.41.05v2A1.16,1.16,0,0,0,152.08,177.76Z" transform="translate(-13.43 -24.13)"/></svg>