<?xml version="1.0" encoding="utf-8"?>
<svg id="master-artboard" viewBox="0 0 1400 1400" version="1.1" xmlns="http://www.w3.org/2000/svg" x="0px" y="0px" width="1400px" height="1400px" enable-background="new 0 0 1400 1400">

<g>
	<path fill-rule="evenodd" clip-rule="evenodd" fill="#FFFFFF" d="M878.8,466.4c2.5,0,4.6-2.1,4.6-4.6s-2.1-4.6-4.6-4.6&#10;&#9;&#9;c-2.6,0-4.7,2.1-4.7,4.6S876.2,466.4,878.8,466.4L878.8,466.4z"/>
	<path fill-rule="evenodd" clip-rule="evenodd" fill="#FFFFFF" d="M760,314.9c2.6,0,4.6-2.1,4.6-4.6c0-2.6-2.1-4.6-4.6-4.6&#10;&#9;&#9;s-4.6,2.1-4.6,4.6C755.4,312.8,757.5,314.9,760,314.9L760,314.9z"/>
	<path fill-rule="evenodd" clip-rule="evenodd" fill="#FFFFFF" d="M762.8,477.9c2.6,0,4.6-2.1,4.6-4.7c0-2.5-2.1-4.6-4.6-4.6&#10;&#9;&#9;c-2.6,0-4.6,2.1-4.6,4.6C758.2,475.8,760.3,477.9,762.8,477.9L762.8,477.9z"/>
	<path fill-rule="evenodd" clip-rule="evenodd" fill="#FFFFFF" d="M436.9,311.6c2.6,0,4.6-2.1,4.6-4.6c0-2.6-2.1-4.7-4.6-4.7&#10;&#9;&#9;c-2.6,0-4.6,2.1-4.6,4.7C432.2,309.5,434.3,311.6,436.9,311.6L436.9,311.6z"/>
	<path fill-rule="evenodd" clip-rule="evenodd" fill="#FFFFFF" d="M331.7,473.5c2.6,0,4.7-2.1,4.7-4.6c0-2.6-2.1-4.6-4.7-4.6&#10;&#9;&#9;c-2.5,0-4.6,2.1-4.6,4.6C327.1,471.5,329.2,473.5,331.7,473.5L331.7,473.5z"/>
	<path fill-rule="evenodd" clip-rule="evenodd" fill="#FFFFFF" d="M966.4,385.8c2.6,0,4.6-2.1,4.6-4.6c0-2.6-2.1-4.7-4.6-4.7&#10;&#9;&#9;c-2.6,0-4.6,2.1-4.6,4.7C961.8,383.7,963.8,385.8,966.4,385.8L966.4,385.8z"/>
	<path fill-rule="evenodd" clip-rule="evenodd" fill="#FFFFFF" d="M1058.9,477.9c1.3,0,2.3-1,2.3-2.3c0-1.3-1.1-2.3-2.3-2.3&#10;&#9;&#9;c-1.3,0-2.3,1.1-2.3,2.3C1056.6,476.8,1057.6,477.9,1058.9,477.9L1058.9,477.9z"/>
	<path fill-rule="evenodd" clip-rule="evenodd" fill="#FFFFFF" d="M919.8,588.9c1.3,0,2.3-1,2.3-2.3c0-1.3-1-2.3-2.3-2.3&#10;&#9;&#9;c-1.3,0-2.3,1-2.3,2.3C917.5,587.8,918.5,588.9,919.8,588.9L919.8,588.9z"/>
	<path fill-rule="evenodd" clip-rule="evenodd" fill="#FFFFFF" d="M913.7,313.7c1.3,0,2.3-1,2.3-2.3c0-1.3-1-2.3-2.3-2.3&#10;&#9;&#9;c-1.3,0-2.3,1.1-2.3,2.3C911.4,312.6,912.4,313.7,913.7,313.7L913.7,313.7z"/>
	<path fill-rule="evenodd" clip-rule="evenodd" fill="#FFFFFF" d="M652.9,297.3c1.3,0,2.3-1,2.3-2.3c0-1.3-1-2.3-2.3-2.3&#10;&#9;&#9;c-1.3,0-2.3,1-2.3,2.3C650.6,296.3,651.6,297.3,652.9,297.3L652.9,297.3z"/>
	<path fill-rule="evenodd" clip-rule="evenodd" fill="#FFFFFF" d="M988.9,286.8c1.3,0,2.3-1,2.3-2.3c0-1.3-1-2.3-2.3-2.3&#10;&#9;&#9;s-2.3,1-2.3,2.3C986.6,285.7,987.6,286.8,988.9,286.8L988.9,286.8z"/>
	<path fill-rule="evenodd" clip-rule="evenodd" fill="#FFFFFF" d="M582.7,455.6c1.3,0,2.3-1,2.3-2.3c0-1.3-1.1-2.3-2.3-2.3&#10;&#9;&#9;c-1.3,0-2.3,1.1-2.3,2.3C580.4,454.6,581.5,455.6,582.7,455.6L582.7,455.6z"/>
	<path fill-rule="evenodd" clip-rule="evenodd" fill="#FFFFFF" d="M474.6,486.9c1.3,0,2.3-1,2.3-2.3c0-1.3-1-2.3-2.3-2.3&#10;&#9;&#9;c-1.3,0-2.3,1.1-2.3,2.3C472.3,485.8,473.3,486.9,474.6,486.9L474.6,486.9z"/>
	<path fill-rule="evenodd" clip-rule="evenodd" fill="#FFFFFF" d="M509.4,593.3c1.3,0,2.3-1,2.3-2.3c0-1.3-1-2.3-2.3-2.3&#10;&#9;&#9;c-1.3,0-2.3,1-2.3,2.3C507,592.3,508.1,593.3,509.4,593.3L509.4,593.3z"/>
	<path fill-rule="evenodd" clip-rule="evenodd" fill="#FFFFFF" d="M829.5,249.9c1.3,0,2.3-1,2.3-2.3c0-1.3-1-2.3-2.3-2.3&#10;&#9;&#9;c-1.3,0-2.3,1.1-2.3,2.3C827.2,248.9,828.2,249.9,829.5,249.9L829.5,249.9z"/>
	<path fill-rule="evenodd" clip-rule="evenodd" fill="#FFFFFF" d="M273.2,370.4c1.3,0,2.3-1,2.3-2.3c0-1.3-1-2.3-2.3-2.3&#10;&#9;&#9;c-1.3,0-2.3,1-2.3,2.3C270.9,369.4,271.9,370.4,273.2,370.4L273.2,370.4z"/>
	<path fill-rule="evenodd" clip-rule="evenodd" fill="#FFFFFF" d="M348,567.8c1.3,0,2.3-1.1,2.3-2.3c0-1.3-1.1-2.3-2.3-2.3&#10;&#9;&#9;c-1.3,0-2.3,1-2.3,2.3C345.7,566.8,346.7,567.8,348,567.8L348,567.8z"/>
	<path fill-rule="evenodd" clip-rule="evenodd" fill="#FFFFFF" d="M1141.6,406.6c0.6,0,1.2-0.5,1.2-1.2c0-0.6-0.5-1.2-1.2-1.2&#10;&#9;&#9;c-0.6,0-1.2,0.5-1.2,1.2C1140.5,406,1141,406.6,1141.6,406.6L1141.6,406.6z"/>
	<path fill-rule="evenodd" clip-rule="evenodd" fill="#FFFFFF" d="M1073.1,622.1c0.6,0,1.2-0.5,1.2-1.2c0-0.6-0.5-1.2-1.2-1.2&#10;&#9;&#9;s-1.2,0.5-1.2,1.2C1071.9,621.6,1072.4,622.1,1073.1,622.1L1073.1,622.1z"/>
	<path fill-rule="evenodd" clip-rule="evenodd" fill="#FFFFFF" d="M826,411.2c0.6,0,1.2-0.5,1.2-1.2s-0.5-1.2-1.2-1.2&#10;&#9;&#9;c-0.7,0-1.2,0.5-1.2,1.2S825.4,411.2,826,411.2L826,411.2z"/>
	<path fill-rule="evenodd" clip-rule="evenodd" fill="#FFFFFF" d="M913.8,682.7c0.6,0,1.2-0.5,1.2-1.2s-0.5-1.2-1.2-1.2&#10;&#9;&#9;c-0.6,0-1.2,0.5-1.2,1.2S913.2,682.7,913.8,682.7L913.8,682.7z"/>
	<path fill-rule="evenodd" clip-rule="evenodd" fill="#FFFFFF" d="M387.8,412.4c0.6,0,1.2-0.5,1.2-1.2c0-0.6-0.5-1.2-1.2-1.2&#10;&#9;&#9;s-1.2,0.5-1.2,1.2C386.6,411.8,387.2,412.4,387.8,412.4L387.8,412.4z"/>
	<path fill-rule="evenodd" clip-rule="evenodd" fill="#FFFFFF" d="M316,300.2c0.6,0,1.2-0.5,1.2-1.2c0-0.6-0.5-1.2-1.2-1.2&#10;&#9;&#9;s-1.2,0.5-1.2,1.2C314.9,299.7,315.4,300.2,316,300.2L316,300.2z"/>
	<path fill-rule="evenodd" clip-rule="evenodd" fill="#FFFFFF" d="M305.9,656.9c0.7,0,1.2-0.5,1.2-1.2c0-0.6-0.5-1.2-1.2-1.2&#10;&#9;&#9;c-0.6,0-1.2,0.5-1.2,1.2C304.7,656.4,305.3,656.9,305.9,656.9L305.9,656.9z"/>
	<path fill-rule="evenodd" clip-rule="evenodd" fill="#FFFFFF" d="M724.3,413.5c0.6,0,1.2-0.5,1.2-1.2s-0.5-1.2-1.2-1.2&#10;&#9;&#9;c-0.6,0-1.2,0.5-1.2,1.2S723.6,413.5,724.3,413.5L724.3,413.5z"/>
	<path fill-rule="evenodd" clip-rule="evenodd" fill="#FFFFFF" d="M616.6,223.9c0.6,0,1.2-0.5,1.2-1.2c0-0.6-0.5-1.2-1.2-1.2&#10;&#9;&#9;s-1.2,0.5-1.2,1.2C615.4,223.4,616,223.9,616.6,223.9L616.6,223.9z"/>
</g>
<path fill-rule="evenodd" clip-rule="evenodd" fill="#FFFFFF" d="M529.4,340.6c1.6,0,3.3,0.2,4.8,0.6c-8,0.6-14.3,7.3-14.3,15.5&#10;&#9;c0,8.5,7,15.5,15.5,15.5c5.2,0,9.8-2.6,12.6-6.5c-2.4,8-9.8,13.8-18.6,13.8c-10.7,0-19.5-8.7-19.5-19.5&#10;&#9;C510,349.2,518.7,340.6,529.4,340.6L529.4,340.6z"/>
<g>
	<path fill-rule="evenodd" clip-rule="evenodd" fill="#14002E" d="M133.7,1024.2V939h1132.6v85.3&#10;&#9;&#9;C1266.3,1229.8,133.7,1229.8,133.7,1024.2L133.7,1024.2z"/>
	<path fill-rule="evenodd" clip-rule="evenodd" fill="#230144" d="M133.7,939h1132.6C1266.3,1144.5,133.7,1144.5,133.7,939&#10;&#9;&#9;L133.7,939z"/>
</g>
<g>
	<g>
		<path d="M 700 466.29998779296875 L 1012.9000244140625 939 L 387.1000061035156 939 Z" fill-rule="evenodd" clip-rule="evenodd" fill="#0B0033"/>
		<linearGradient id="SVGID_1_" gradientUnits="userSpaceOnUse" x1="543.55" y1="466.27" x2="543.55" y2="938.98">
			<stop offset="0" style="stop-color:#422999"/>
			<stop offset="1" style="stop-color:#422999;stop-opacity:0"/>
		</linearGradient>
		<path d="M 700 466.29998779296875 L 659.0999755859375 563.9000244140625 L 681.9000244140625 582.5999755859375 L 620.9000244140625 726.5 L 651.7999877929688 755.7000122070312 L 587.2999877929688 911.5 L 613.4000244140625 939 L 387.1000061035156 939 Z" fill-rule="evenodd" clip-rule="evenodd" fill="url(#SVGID_1_)"/>
	</g>
	<g>
		<path d="M 414.79998779296875 641.2000122070312 L 612 939 L 217.6999969482422 939 Z" fill-rule="evenodd" clip-rule="evenodd" fill="#0B0033"/>
		<linearGradient id="SVGID_2_" gradientUnits="userSpaceOnUse" x1="316.26" y1="641.2" x2="316.26" y2="938.98">
			<stop offset="0" style="stop-color:#422999"/>
			<stop offset="1" style="stop-color:#422999;stop-opacity:0"/>
		</linearGradient>
		<path d="M 414.79998779296875 641.2000122070312 L 389.1000061035156 702.7000122070312 L 403.5 714.5 L 365 805.0999755859375 L 384.5 823.5 L 343.79998779296875 921.7000122070312 L 360.29998779296875 939 L 217.6999969482422 939 Z" fill-rule="evenodd" clip-rule="evenodd" fill="url(#SVGID_2_)"/>
	</g>
	<g>
		<path d="M 985.2000122070312 641.2000122070312 L 1182.300048828125 939 L 788.0999755859375 939 Z" fill-rule="evenodd" clip-rule="evenodd" fill="#0B0033"/>
		<linearGradient id="SVGID_3_" gradientUnits="userSpaceOnUse" x1="886.62" y1="641.2" x2="886.62" y2="938.98">
			<stop offset="0" style="stop-color:#422999"/>
			<stop offset="1" style="stop-color:#422999;stop-opacity:0"/>
		</linearGradient>
		<path d="M 985.2000122070312 641.2000122070312 L 959.4000244140625 702.7000122070312 L 973.7999877929688 714.5 L 935.4000244140625 805.0999755859375 L 954.7999877929688 823.5 L 914.2000122070312 921.7000122070312 L 930.5999755859375 939 L 788.0999755859375 939 Z" fill-rule="evenodd" clip-rule="evenodd" fill="url(#SVGID_3_)"/>
	</g>
</g>
<g>
	<g>
		<path fill-rule="evenodd" clip-rule="evenodd" fill="#150151" d="M197.4,535.4h213c-9-26.5-35-67.1-71.9-22.5&#10;&#9;&#9;&#9;c-21.6-62.3-71.5-63.7-95.3,1.8C230.3,494.6,206.4,509.6,197.4,535.4L197.4,535.4z"/>
		<path fill-rule="evenodd" clip-rule="evenodd" fill="#5937BF" d="M197.4,535.4c9-21.5,28.5-42.5,44.7-15.3&#10;&#9;&#9;&#9;c26.9-80.5,73-50.6,93.1-1.3c21.3-34.3,48-27.9,75.2,16.6c-9-26.5-35-67.1-71.9-22.5c-21.6-62.3-71.5-63.7-95.3,1.8&#10;&#9;&#9;&#9;C230.3,494.6,206.4,509.6,197.4,535.4L197.4,535.4z"/>
	</g>
	<g>
		<path fill-rule="evenodd" clip-rule="evenodd" fill="#150151" d="M432.9,561.8h97.2c-4.1-12.1-16-30.6-32.8-10.3&#10;&#9;&#9;&#9;c-9.9-28.5-32.6-29.1-43.5,0.8C447.9,543.2,437,550,432.9,561.8L432.9,561.8z"/>
		<path fill-rule="evenodd" clip-rule="evenodd" fill="#5937BF" d="M432.9,561.8c4.1-9.8,13-19.4,20.4-7&#10;&#9;&#9;&#9;c12.3-36.8,33.3-23.1,42.5-0.6c9.7-15.6,21.9-12.7,34.3,7.6c-4.1-12.1-16-30.6-32.8-10.3c-9.9-28.5-32.6-29.1-43.5,0.8&#10;&#9;&#9;&#9;C447.9,543.2,437,550,432.9,561.8L432.9,561.8z"/>
	</g>
	<g>
		<path fill-rule="evenodd" clip-rule="evenodd" fill="#150151" d="M1030.5,448h-81c3.4-10.1,13.3-25.5,27.3-8.5&#10;&#9;&#9;&#9;c8.2-23.7,27.2-24.2,36.2,0.7C1017.9,432.5,1027,438.2,1030.5,448L1030.5,448z"/>
		<path fill-rule="evenodd" clip-rule="evenodd" fill="#5937BF" d="M1030.5,448c-3.5-8.2-10.8-16.1-17-5.8&#10;&#9;&#9;&#9;c-10.2-30.6-27.8-19.3-35.4-0.5c-8.1-13.1-18.3-10.6-28.6,6.3c3.4-10.1,13.3-25.5,27.3-8.5c8.2-23.7,27.2-24.2,36.2,0.7&#10;&#9;&#9;&#9;C1017.9,432.5,1027,438.2,1030.5,448L1030.5,448z"/>
	</g>
	<g>
		<path fill-rule="evenodd" clip-rule="evenodd" fill="#150151" d="M910.8,649.8H768.9c6-17.6,23.3-44.7,47.9-14.9&#10;&#9;&#9;&#9;c14.4-41.5,47.6-42.4,63.5,1.2C888.9,622.6,904.8,632.6,910.8,649.8L910.8,649.8z"/>
		<path fill-rule="evenodd" clip-rule="evenodd" fill="#5937BF" d="M910.8,649.8c-6-14.3-19-28.3-29.8-10.1&#10;&#9;&#9;&#9;c-17.9-53.7-48.6-33.7-62.1-0.9c-14.2-22.8-32-18.5-50.1,11.1c6-17.6,23.3-44.7,47.9-14.9c14.4-41.5,47.6-42.4,63.5,1.2&#10;&#9;&#9;&#9;C888.9,622.6,904.8,632.6,910.8,649.8L910.8,649.8z"/>
	</g>
	<g>
		<path fill-rule="evenodd" clip-rule="evenodd" fill="#150151" d="M1190.7,568.8h-175.8c7.4-21.9,28.8-55.4,59.4-18.5&#10;&#9;&#9;&#9;c17.8-51.5,59-52.6,78.6,1.5C1163.5,535,1183.2,547.4,1190.7,568.8L1190.7,568.8z"/>
		<path fill-rule="evenodd" clip-rule="evenodd" fill="#5937BF" d="M1190.7,568.8c-7.5-17.7-23.6-35.1-36.9-12.6&#10;&#9;&#9;&#9;c-22.2-66.5-60.3-41.8-76.9-1.1c-17.6-28.3-39.7-23-62.1,13.7c7.4-21.9,28.8-55.4,59.4-18.5c17.8-51.5,59-52.6,78.6,1.5&#10;&#9;&#9;&#9;C1163.5,535,1183.2,547.4,1190.7,568.8L1190.7,568.8z"/>
	</g>
</g>
<g>
	<path d="M 1186.9000244140625 872.2000122070312 L 1231.0999755859375 939 L 168.89999389648438 939 L 213.10000610351562 872.2000122070312 L 235.1999969482422 905.7000122070312 L 257.3999938964844 872.2000122070312 L 279.5 905.7000122070312 L 301.6000061035156 872.2000122070312 L 323.79998779296875 905.7000122070312 L 345.8999938964844 872.2000122070312 L 368 905.7000122070312 L 390.20001220703125 872.2000122070312 L 412.29998779296875 905.7000122070312 L 434.3999938964844 872.2000122070312 L 456.6000061035156 905.7000122070312 L 478.70001220703125 872.2000122070312 L 500.79998779296875 905.7000122070312 L 523 872.2000122070312 L 545.0999755859375 905.7000122070312 L 567.2000122070312 872.2000122070312 L 589.4000244140625 905.7000122070312 L 611.5 872.2000122070312 L 633.5999755859375 905.7000122070312 L 655.7000122070312 872.2000122070312 L 677.9000244140625 905.7000122070312 L 700 872.2000122070312 L 722.0999755859375 905.7000122070312 L 744.2999877929688 872.2000122070312 L 766.4000244140625 905.7000122070312 L 788.5 872.2000122070312 L 810.7000122070312 905.7000122070312 L 832.7999877929688 872.2000122070312 L 854.9000244140625 905.7000122070312 L 877.0999755859375 872.2000122070312 L 899.2000122070312 905.7000122070312 L 921.2999877929688 872.2000122070312 L 943.5 905.7000122070312 L 965.5999755859375 872.2000122070312 L 987.7000122070312 905.7000122070312 L 1009.9000244140625 872.2000122070312 L 1032 905.7000122070312 L 1054.0999755859375 872.2000122070312 L 1076.199951171875 905.7000122070312 L 1098.4000244140625 872.2000122070312 L 1120.5 905.7000122070312 L 1142.5999755859375 872.2000122070312 L 1164.800048828125 905.7000122070312 Z" fill-rule="evenodd" clip-rule="evenodd" fill="#300659"/>
	<path d="M 390.20001220703125 872.2000122070312 L 412.29998779296875 905.7000122070312 L 434.3999938964844 872.2000122070312 L 456.6000061035156 905.7000122070312 L 478.70001220703125 872.2000122070312 L 500.79998779296875 905.7000122070312 L 523 872.2000122070312 L 545.0999755859375 905.7000122070312 L 567.2000122070312 872.2000122070312 L 545.5 908.7000122070312 L 523 874.9000244140625 L 500.5 912.0999755859375 L 478.70001220703125 875.7999877929688 L 456.8999938964844 912.0999755859375 L 434.29998779296875 874.9000244140625 L 411.79998779296875 908.7000122070312 Z" fill-rule="evenodd" clip-rule="evenodd" fill="#FFFF66"/>
</g>
<g>
	<g>
		<g>
			<path fill-rule="evenodd" clip-rule="evenodd" fill="#400B75" d="M374.9,895.3c30.6,0,55.6-25,55.6-55.6s-25-55.6-55.6-55.6&#10;&#9;&#9;&#9;&#9;s-55.6,25-55.6,55.6S344.3,895.3,374.9,895.3L374.9,895.3z"/>
			<path fill-rule="evenodd" clip-rule="evenodd" fill="#FFFF66" d="M405.7,793.3c15,10,24.8,27,24.8,46.3&#10;&#9;&#9;&#9;&#9;c0,30.7-24.9,55.6-55.6,55.6c-12.9,0-24.8-4.4-34.2-11.8c8.8,5.9,19.4,9.3,30.8,9.3c30.7,0,55.6-24.9,55.6-55.6&#10;&#9;&#9;&#9;&#9;C427.1,819.4,418.7,803.5,405.7,793.3L405.7,793.3z"/>
		</g>
		<g>
			<path fill-rule="evenodd" clip-rule="evenodd" fill="#FFFF66" d="M373.2,939h4v-65.6l19.1-19.1c0.8-0.8,0.8-2.1,0-2.8l0,0&#10;&#9;&#9;&#9;&#9;c-0.8-0.8-2-0.8-2.8,0l-16.2,16.3v-26c0-1.1-0.9-2-2-2l0,0c-1.1,0-2,0.9-2,2v34.6l-16.8-16.8c-0.8-0.8-2.1-0.8-2.9,0l0,0&#10;&#9;&#9;&#9;&#9;c-0.8,0.8-0.8,2.1,0,2.8l19.7,19.6V939z"/>
			<path fill-rule="evenodd" clip-rule="evenodd" fill="#180144" d="M371.7,939h4v-65.6l19.1-19.1c0.8-0.8,0.8-2.1,0-2.8l0,0&#10;&#9;&#9;&#9;&#9;c-0.8-0.8-2.1-0.8-2.8,0l-16.2,16.3v-26c0-1.1-0.9-2-2-2l0,0c-1.1,0-2,0.9-2,2v34.6l-16.8-16.8c-0.8-0.8-2.1-0.8-2.9,0l0,0&#10;&#9;&#9;&#9;&#9;c-0.8,0.8-0.8,2.1,0,2.8l19.7,19.6V939z"/>
		</g>
	</g>
	<g>
		<g>
			<path fill-rule="evenodd" clip-rule="evenodd" fill="#400B75" d="M288.8,895.3c30.6,0,55.6-25,55.6-55.6s-25-55.6-55.6-55.6&#10;&#9;&#9;&#9;&#9;s-55.6,25-55.6,55.6S258.2,895.3,288.8,895.3L288.8,895.3z"/>
			<path fill-rule="evenodd" clip-rule="evenodd" fill="#FFFF66" d="M319.6,793.3c15,10,24.8,27,24.8,46.3&#10;&#9;&#9;&#9;&#9;c0,30.7-24.9,55.6-55.6,55.6c-12.9,0-24.8-4.4-34.2-11.8c8.8,5.9,19.4,9.3,30.8,9.3c30.7,0,55.6-24.9,55.6-55.6&#10;&#9;&#9;&#9;&#9;C341,819.4,332.6,803.5,319.6,793.3L319.6,793.3z"/>
		</g>
		<g>
			<path fill-rule="evenodd" clip-rule="evenodd" fill="#FFFF66" d="M287.1,939h4v-65.6l19.1-19.1c0.8-0.8,0.8-2.1,0-2.8l0,0&#10;&#9;&#9;&#9;&#9;c-0.8-0.8-2.1-0.8-2.8,0l-16.2,16.3v-26c0-1.1-0.9-2-2-2l0,0c-1.1,0-2,0.9-2,2v34.6l-16.8-16.8c-0.8-0.8-2-0.8-2.8,0l0,0&#10;&#9;&#9;&#9;&#9;c-0.8,0.8-0.8,2.1,0,2.8l19.7,19.6V939z"/>
			<path fill-rule="evenodd" clip-rule="evenodd" fill="#180144" d="M285.7,939h4v-65.6l19.1-19.1c0.8-0.8,0.8-2.1,0-2.8l0,0&#10;&#9;&#9;&#9;&#9;c-0.8-0.8-2.1-0.8-2.8,0l-16.3,16.3v-26c0-1.1-0.9-2-2-2l0,0c-1.1,0-2,0.9-2,2v34.6l-16.8-16.8c-0.8-0.8-2-0.8-2.8,0l0,0&#10;&#9;&#9;&#9;&#9;c-0.8,0.8-0.8,2.1,0,2.8l19.7,19.6V939z"/>
		</g>
	</g>
	<g>
		<g>
			<path fill-rule="evenodd" clip-rule="evenodd" fill="#400B75" d="M626.1,895.3c30.6,0,55.6-25,55.6-55.6s-25-55.6-55.6-55.6&#10;&#9;&#9;&#9;&#9;s-55.6,25-55.6,55.6S595.5,895.3,626.1,895.3L626.1,895.3z"/>
			<path fill-rule="evenodd" clip-rule="evenodd" fill="#FFFF66" d="M595.3,793.3c-14.9,10-24.8,27-24.8,46.3&#10;&#9;&#9;&#9;&#9;c0,30.7,24.9,55.6,55.6,55.6c12.9,0,24.8-4.4,34.3-11.8c-8.8,5.9-19.4,9.3-30.8,9.3c-30.7,0-55.6-24.9-55.6-55.6&#10;&#9;&#9;&#9;&#9;C574,819.4,582.4,803.5,595.3,793.3L595.3,793.3z"/>
		</g>
		<g>
			<path fill-rule="evenodd" clip-rule="evenodd" fill="#FFFF66" d="M627.9,939h-4v-65.6l-19.1-19.1c-0.8-0.8-0.8-2.1,0-2.8l0,0&#10;&#9;&#9;&#9;&#9;c0.8-0.8,2.1-0.8,2.8,0l16.3,16.3v-26c0-1.1,0.9-2,2-2l0,0c1.1,0,2,0.9,2,2v34.6l16.8-16.8c0.8-0.8,2.1-0.8,2.8,0l0,0&#10;&#9;&#9;&#9;&#9;c0.8,0.8,0.8,2.1,0,2.8l-19.6,19.6V939z"/>
			<path fill-rule="evenodd" clip-rule="evenodd" fill="#180144" d="M629.3,939h-4v-65.6l-19.1-19.1c-0.8-0.8-0.8-2.1,0-2.8l0,0&#10;&#9;&#9;&#9;&#9;c0.8-0.8,2.1-0.8,2.8,0l16.3,16.3v-26c0-1.1,0.9-2,2-2l0,0c1.1,0,2,0.9,2,2v34.6l16.8-16.8c0.8-0.8,2.1-0.8,2.8,0l0,0&#10;&#9;&#9;&#9;&#9;c0.8,0.8,0.8,2.1,0,2.8l-19.6,19.6V939z"/>
		</g>
	</g>
	<g>
		<g>
			<path fill-rule="evenodd" clip-rule="evenodd" fill="#400B75" d="M832.5,895.3c30.6,0,55.6-25,55.6-55.6s-25-55.6-55.6-55.6&#10;&#9;&#9;&#9;&#9;c-30.6,0-55.6,25-55.6,55.6S801.9,895.3,832.5,895.3L832.5,895.3z"/>
			<path fill-rule="evenodd" clip-rule="evenodd" fill="#FFFF66" d="M801.7,793.3c-14.9,10-24.8,27-24.8,46.3&#10;&#9;&#9;&#9;&#9;c0,30.7,24.9,55.6,55.6,55.6c12.9,0,24.8-4.4,34.2-11.8C806.5,923.7,742.3,839.8,801.7,793.3L801.7,793.3z"/>
		</g>
		<g>
			<path fill-rule="evenodd" clip-rule="evenodd" fill="#FFFF66" d="M834.3,939h-4v-65.6l-19.1-19.1c-0.8-0.8-0.8-2.1,0-2.8l0,0&#10;&#9;&#9;&#9;&#9;c0.8-0.8,2.1-0.8,2.8,0l16.3,16.3v-26c0-1.1,0.9-2,2-2l0,0c1.1,0,2,0.9,2,2v34.6l16.8-16.8c0.8-0.8,2.1-0.8,2.8,0l0,0&#10;&#9;&#9;&#9;&#9;c0.8,0.8,0.8,2.1,0,2.8l-19.6,19.6V939z"/>
			<path fill-rule="evenodd" clip-rule="evenodd" fill="#180144" d="M835.2,939h-4v-65.6l-19.1-19.1c-0.8-0.8-0.8-2.1,0-2.8l0,0&#10;&#9;&#9;&#9;&#9;c0.8-0.8,2.1-0.8,2.9,0l16.2,16.3v-26c0-1.1,0.9-2,2-2l0,0c1.1,0,2,0.9,2,2v34.6l16.8-16.8c0.8-0.8,2.1-0.8,2.9,0l0,0&#10;&#9;&#9;&#9;&#9;c0.8,0.8,0.8,2.1,0,2.8l-19.7,19.6V939z"/>
		</g>
	</g>
	<g>
		<g>
			<path fill-rule="evenodd" clip-rule="evenodd" fill="#400B75" d="M930.5,895.3c30.6,0,55.6-25,55.6-55.6s-25-55.6-55.6-55.6&#10;&#9;&#9;&#9;&#9;c-30.7,0-55.6,25-55.6,55.6S899.9,895.3,930.5,895.3L930.5,895.3z"/>
			<path fill-rule="evenodd" clip-rule="evenodd" fill="#FFFF66" d="M899.7,793.3c-15,10-24.8,27-24.8,46.3&#10;&#9;&#9;&#9;&#9;c0,30.7,24.9,55.6,55.6,55.6c12.9,0,24.8-4.4,34.2-11.8C902.2,925.6,840,840.4,899.7,793.3L899.7,793.3z"/>
		</g>
		<g>
			<path fill-rule="evenodd" clip-rule="evenodd" fill="#FFFF66" d="M932.3,939h-4v-65.6l-19.1-19.1c-0.8-0.8-0.8-2.1,0-2.8l0,0&#10;&#9;&#9;&#9;&#9;c0.8-0.8,2-0.8,2.8,0l16.2,16.3v-26c0-1.1,0.9-2,2-2l0,0c1.1,0,2,0.9,2,2v34.6l16.8-16.8c0.8-0.8,2.1-0.8,2.9,0l0,0&#10;&#9;&#9;&#9;&#9;c0.8,0.8,0.8,2.1,0,2.8l-19.7,19.6V939z"/>
			<path fill-rule="evenodd" clip-rule="evenodd" fill="#180144" d="M932.8,939h-4v-65.6l-19.1-19.1c-0.8-0.8-0.8-2.1,0-2.8l0,0&#10;&#9;&#9;&#9;&#9;c0.8-0.8,2-0.8,2.8,0l16.2,16.3v-26c0-1.1,0.9-2,2-2l0,0c1.1,0,2,0.9,2,2v34.6l16.8-16.8c0.8-0.8,2.1-0.8,2.9,0l0,0&#10;&#9;&#9;&#9;&#9;c0.8,0.8,0.8,2.1,0,2.8l-19.7,19.6V939z"/>
		</g>
	</g>
	<g>
		<path fill-rule="evenodd" clip-rule="evenodd" fill="#400B75" d="M1052.4,895.3c30.6,0,55.6-25,55.6-55.6s-25-55.6-55.6-55.6&#10;&#9;&#9;&#9;c-30.7,0-55.6,25-55.6,55.6S1021.7,895.3,1052.4,895.3L1052.4,895.3z"/>
		<path fill-rule="evenodd" clip-rule="evenodd" fill="#180144" d="M1054.1,939h-4v-65.6l-19.1-19.1c-0.8-0.8-0.8-2.1,0-2.8l0,0&#10;&#9;&#9;&#9;c0.8-0.8,2-0.8,2.8,0l16.2,16.3v-26c0-1.1,0.9-2,2-2l0,0c1.1,0,2,0.9,2,2v34.6l16.8-16.8c0.8-0.8,2.1-0.8,2.9,0l0,0&#10;&#9;&#9;&#9;c0.8,0.8,0.8,2.1,0,2.8l-19.7,19.6V939z"/>
	</g>
</g>
<g>
	<g>
		<path d="M 445 976.299988 H 514.699997 V 986.499988 H 445 V 976.299988 Z" fill-rule="evenodd" clip-rule="evenodd" fill="#69321F"/>
		<path fill-rule="evenodd" clip-rule="evenodd" fill="#B06B3A" d="M445,986.4c1.6,0,2.9-2.3,2.9-5.1s-1.3-5.1-2.9-5.1&#10;&#9;&#9;&#9;c-1.6,0-2.9,2.3-2.9,5.1S443.4,986.4,445,986.4L445,986.4z"/>
		<path fill-rule="evenodd" clip-rule="evenodd" fill="#B06B3A" d="M470,986.4c2.3,0,4.3-2.3,4.3-5.1s-1.9-5.1-4.3-5.1&#10;&#9;&#9;&#9;c-2.4,0-4.3,2.3-4.3,5.1S467.7,986.4,470,986.4L470,986.4z"/>
		<path fill-rule="evenodd" clip-rule="evenodd" fill="#B06B3A" d="M493.3,986.4c2.3,0,4.3-2.3,4.3-5.1s-2-5.1-4.3-5.1&#10;&#9;&#9;&#9;c-2.4,0-4.3,2.3-4.3,5.1S490.9,986.4,493.3,986.4L493.3,986.4z"/>
		<path fill-rule="evenodd" clip-rule="evenodd" fill="#B06B3A" d="M514.7,986.4c1.6,0,2.9-2.3,2.9-5.1s-1.3-5.1-2.9-5.1&#10;&#9;&#9;&#9;c-1.6,0-2.9,2.3-2.9,5.1S513.1,986.4,514.7,986.4L514.7,986.4z"/>
	</g>
	<g>
		<path fill-rule="evenodd" clip-rule="evenodd" fill="#FFCC00" d="M478.7,972.9c-15,0-22.3-14.7-14.8-31.5c-0.5,3.6-0.1,7,1,8.8&#10;&#9;&#9;&#9;c1,1.6,2.8,1,2.7-1.4c-0.6-13,10.7-16.9,12.1-23.7c1.1,4.6-3.4,8.8-2.1,9.6c1.7,1.1,6.9-5.9,6.2-15.2c5.8,5.6,2.3,15,3.8,20.4&#10;&#9;&#9;&#9;c0.9,3.3,6.3,0.6,4.5-8.2c9.3,16.6-0.4,28.4,2.2,30.7c1.5,1.2,4.9-3.3,4.2-9C500.8,962.4,492.8,972.9,478.7,972.9L478.7,972.9z"/>
		<path fill-rule="evenodd" clip-rule="evenodd" fill="#FF7614" d="M478.7,971.5c-8.8-0.4-15.6-7.4-13.8-17c1,3.1,2.7,6.5,5.6,5.7&#10;&#9;&#9;&#9;c2.7-1.8,0.3-13,3.1-17.5c-0.6,3.3,0.9,6.4,3.1,6.5c2.9,0.1,5.1-7,6.2-10.4c0,2.1-1.1,17.9,6.6,11.9c-3,11.2-3,14.5-2.1,14.8&#10;&#9;&#9;&#9;c1.3,0.5,2.7-1.7,3.2-3.3C490.9,967,486.6,971.8,478.7,971.5L478.7,971.5z"/>
		<path fill-rule="evenodd" clip-rule="evenodd" fill="#FFCC00" d="M480.1,912.6c-1.6-1.6-3.6-3.9,0.1-8.9&#10;&#9;&#9;&#9;C481.1,905.5,483.9,909.9,480.1,912.6L480.1,912.6z"/>
		<path fill-rule="evenodd" clip-rule="evenodd" fill="#FFCC00" d="M474.8,899c-0.9-0.7-1.1-2,0-3.7&#10;&#9;&#9;&#9;C475.3,896.7,476.3,898,474.8,899L474.8,899z"/>
	</g>
</g>
<g>
	<path fill-rule="evenodd" clip-rule="evenodd" fill="#14002E" d="M900.6,991.7c154.3,0,280.2-2.4,280.2-5.3&#10;&#9;&#9;c0-2.9-125.9-5.3-280.2-5.3s-280.2,2.4-280.2,5.3C620.4,989.3,746.3,991.7,900.6,991.7L900.6,991.7z"/>
	<g>
		<g>
			<path fill-rule="evenodd" clip-rule="evenodd" fill="#52074E" d="M640.3,986.4h215.5C855.7,777.5,640.3,777.5,640.3,986.4&#10;&#9;&#9;&#9;&#9;L640.3,986.4z"/>
			<path fill-rule="evenodd" clip-rule="evenodd" fill="#941E78" d="M634.2,959.9h227.6C825.6,786.3,670.4,786.3,634.2,959.9&#10;&#9;&#9;&#9;&#9;L634.2,959.9z"/>
			<path fill-rule="evenodd" clip-rule="evenodd" fill="#FFFF66" d="M634.2,959.9h5.5c10.6-55.9,37.9-105.5,76.2-123.5&#10;&#9;&#9;&#9;&#9;C680,851.5,648.2,892.7,634.2,959.9L634.2,959.9z"/>
			<path fill-rule="evenodd" clip-rule="evenodd" fill="#FFFF66" d="M751.7,959.9h-5.3c-3.6-31.9-14-54-26.8-66.2&#10;&#9;&#9;&#9;&#9;C735.3,906.9,748.4,934.1,751.7,959.9L751.7,959.9z"/>
		</g>
		<g>
			<path fill-rule="evenodd" clip-rule="evenodd" fill="#660C62" d="M640.3,986.4h107.7C747.9,847.9,640.3,847.9,640.3,986.4&#10;&#9;&#9;&#9;&#9;L640.3,986.4z"/>
			<path d="M 693.2000122070312 986.4000244140625 L 705.5 986.4000244140625 L 693.2000122070312 882.5999755859375 L 680.9000244140625 986.4000244140625 Z" fill-rule="evenodd" clip-rule="evenodd" fill="#380135"/>
			<path d="M 705.5 986.4000244140625 L 693.2000122070312 882.5999755859375 L 714 983.0999755859375 Z" fill-rule="evenodd" clip-rule="evenodd" fill="#FFFF66"/>
			<path d="M 680.9000244140625 986.4000244140625 L 693.2000122070312 882.5999755859375 L 672.2999877929688 983.0999755859375 Z" fill-rule="evenodd" clip-rule="evenodd" fill="#FFFF66"/>
		</g>
		<g>
			<g>
				<path d="M 622.7999877929688 986.4000244140625 L 620.4000244140625 986.4000244140625 L 620.4000244140625 983.4000244140625 L 619.5999755859375 983.4000244140625 L 619.5999755859375 981 L 623.5999755859375 981 L 623.5999755859375 983.4000244140625 L 622.7999877929688 983.4000244140625 Z" fill-rule="evenodd" clip-rule="evenodd" fill="#660C62"/>
				<path d="M 634.2000122070312 959.9000244140625 L 635.0999755859375 959.9000244140625 L 620.7999877929688 984.7000122070312 L 619.9000244140625 984.7000122070312 Z" fill-rule="evenodd" clip-rule="evenodd" fill="#FFFF66"/>
			</g>
			<g>
				<path d="M 763.0999755859375 986.4000244140625 L 765.5 986.4000244140625 L 765.5 983.4000244140625 L 766.2999877929688 983.4000244140625 L 766.2999877929688 981 L 762.2999877929688 981 L 762.2999877929688 983.4000244140625 L 763.0999755859375 983.4000244140625 Z" fill-rule="evenodd" clip-rule="evenodd" fill="#660C62"/>
				<path d="M 751.7000122070312 959.9000244140625 L 750.7999877929688 959.9000244140625 L 765.0999755859375 984.7000122070312 L 766 984.7000122070312 Z" fill-rule="evenodd" clip-rule="evenodd" fill="#FFFF66"/>
			</g>
			<g>
				<path d="M 830.2000122070312 986.4000244140625 L 832.5999755859375 986.4000244140625 L 832.5999755859375 983.4000244140625 L 833.4000244140625 983.4000244140625 L 833.4000244140625 981 L 829.4000244140625 981 L 829.4000244140625 983.4000244140625 L 830.2000122070312 983.4000244140625 Z" fill-rule="evenodd" clip-rule="evenodd" fill="#660C62"/>
				<path d="M 818.7999877929688 959.9000244140625 L 817.9000244140625 959.9000244140625 L 832.2000122070312 984.7000122070312 L 833.0999755859375 984.7000122070312 Z" fill-rule="evenodd" clip-rule="evenodd" fill="#941E78"/>
			</g>
			<g>
				<path d="M 872.7999877929688 986.4000244140625 L 875.2000122070312 986.4000244140625 L 875.2000122070312 983.4000244140625 L 876 983.4000244140625 L 876 981 L 872 981 L 872 983.4000244140625 L 872.7999877929688 983.4000244140625 Z" fill-rule="evenodd" clip-rule="evenodd" fill="#660C62"/>
				<path d="M 861.4000244140625 959.9000244140625 L 860.5 959.9000244140625 L 874.7999877929688 984.7000122070312 L 875.7000122070312 984.7000122070312 Z" fill-rule="evenodd" clip-rule="evenodd" fill="#941E78"/>
			</g>
		</g>
	</g>
</g>
<g>
	<path fill-rule="evenodd" clip-rule="evenodd" fill="#14002E" d="M1095,1016.3c36.8,0,71.9,0.1,104.1,0.4&#10;&#9;&#9;c-6.8,3.4-13.9,6.8-21.6,10c-26.1,0.1-53.8,0.2-82.5,0.2c-154.7,0-280.2-2.4-280.2-5.3C814.9,1018.7,940.3,1016.3,1095,1016.3&#10;&#9;&#9;L1095,1016.3z"/>
	<g>
		<g>
			<path fill-rule="evenodd" clip-rule="evenodd" fill="#510E07" d="M834.7,1021.6h215.5C1050.2,812.7,834.7,812.7,834.7,1021.6&#10;&#9;&#9;&#9;&#9;L834.7,1021.6z"/>
			<path fill-rule="evenodd" clip-rule="evenodd" fill="#933F1E" d="M828.7,995.1h227.6C1020,821.5,864.9,821.5,828.7,995.1&#10;&#9;&#9;&#9;&#9;L828.7,995.1z"/>
			<path fill-rule="evenodd" clip-rule="evenodd" fill="#FFFF66" d="M828.7,995.1h3.3c10.6-56,37.4-104.9,78.5-123.6&#10;&#9;&#9;&#9;&#9;C874.5,886.8,842.7,927.9,828.7,995.1L828.7,995.1z"/>
			<path fill-rule="evenodd" clip-rule="evenodd" fill="#FFFF66" d="M943.5,995.1h-2.6c-3.7-32-14-54-26.8-66.2&#10;&#9;&#9;&#9;&#9;C928.4,941.2,938.5,966.5,943.5,995.1L943.5,995.1z"/>
		</g>
		<g>
			<path fill-rule="evenodd" clip-rule="evenodd" fill="#65140C" d="M834.7,1021.6h107.7C942.4,883.1,834.7,883.1,834.7,1021.6&#10;&#9;&#9;&#9;&#9;L834.7,1021.6z"/>
			<path d="M 887.5999755859375 1021.5999755859375 L 899.9000244140625 1021.5999755859375 L 887.5999755859375 917.7000122070312 L 875.2999877929688 1021.5999755859375 Z" fill-rule="evenodd" clip-rule="evenodd" fill="#370601"/>
			<path d="M 899.9000244140625 1021.5999755859375 L 887.5999755859375 917.7000122070312 L 908.5 1018.2999877929688 Z" fill-rule="evenodd" clip-rule="evenodd" fill="#FFFF66"/>
			<path d="M 875.2999877929688 1021.5999755859375 L 887.5999755859375 917.7000122070312 L 866.7999877929688 1018.2999877929688 Z" fill-rule="evenodd" clip-rule="evenodd" fill="#FFFF66"/>
		</g>
		<g>
			<g>
				<path d="M 817.2000122070312 1021.5999755859375 L 814.9000244140625 1021.5999755859375 L 814.9000244140625 1018.5999755859375 L 814 1018.5999755859375 L 814 1016.2000122070312 L 818.0999755859375 1016.2000122070312 L 818.0999755859375 1018.5999755859375 L 817.2000122070312 1018.5999755859375 Z" fill-rule="evenodd" clip-rule="evenodd" fill="#65140C"/>
				<path d="M 828.7000122070312 995.0999755859375 L 829.5 995.0999755859375 L 815.2999877929688 1019.9000244140625 L 814.4000244140625 1019.9000244140625 Z" fill-rule="evenodd" clip-rule="evenodd" fill="#FFFF66"/>
			</g>
			<g>
				<path d="M 954.9000244140625 1021.5999755859375 L 957.2999877929688 1021.5999755859375 L 957.2999877929688 1018.5999755859375 L 958.0999755859375 1018.5999755859375 L 958.0999755859375 1016.2000122070312 L 954.0999755859375 1016.2000122070312 L 954.0999755859375 1018.5999755859375 L 954.9000244140625 1018.5999755859375 Z" fill-rule="evenodd" clip-rule="evenodd" fill="#65140C"/>
				<path d="M 943.5 995.0999755859375 L 942.5999755859375 995.0999755859375 L 956.9000244140625 1019.9000244140625 L 957.7999877929688 1019.9000244140625 Z" fill-rule="evenodd" clip-rule="evenodd" fill="#FFFF66"/>
			</g>
			<g>
				<path d="M 1024.699951171875 1021.5999755859375 L 1027 1021.5999755859375 L 1027 1018.5999755859375 L 1027.800048828125 1018.5999755859375 L 1027.800048828125 1016.2000122070312 L 1023.9000244140625 1016.2000122070312 L 1023.9000244140625 1018.5999755859375 L 1024.699951171875 1018.5999755859375 Z" fill-rule="evenodd" clip-rule="evenodd" fill="#65140C"/>
				<path d="M 1013.2000122070312 995.0999755859375 L 1012.2999877929688 995.0999755859375 L 1026.5999755859375 1019.9000244140625 L 1027.5 1019.9000244140625 Z" fill-rule="evenodd" clip-rule="evenodd" fill="#933F1E"/>
			</g>
			<g>
				<path d="M 1067.300048828125 1021.5999755859375 L 1069.699951171875 1021.5999755859375 L 1069.699951171875 1018.5999755859375 L 1070.5 1018.5999755859375 L 1070.5 1016.2000122070312 L 1066.5 1016.2000122070312 L 1066.5 1018.5999755859375 L 1067.300048828125 1018.5999755859375 Z" fill-rule="evenodd" clip-rule="evenodd" fill="#65140C"/>
				<path d="M 1055.9000244140625 995.0999755859375 L 1055 995.0999755859375 L 1069.300048828125 1019.9000244140625 L 1070.199951171875 1019.9000244140625 Z" fill-rule="evenodd" clip-rule="evenodd" fill="#933F1E"/>
			</g>
		</g>
	</g>
</g>
<g>
	<g>
		<path d="M 332 1015.5 L 398.5 1015.5 L 348.8999938964844 1035.800048828125 L 361.29998779296875 1024 L 301.79998779296875 1049.0999755859375 L 332.79998779296875 1023.2999877929688 L 312.79998779296875 1031.4000244140625 Z" fill-rule="evenodd" clip-rule="evenodd" fill="#14002E"/>
		<g>
			<path d="M 332 1015.5 L 398.5 1015.5 L 384.20001220703125 998.7000122070312 L 376 1008.5 L 360 987.7000122070312 L 346.29998779296875 1009 L 340.3999938964844 1002.2999877929688 Z" fill-rule="evenodd" clip-rule="evenodd" fill="#300659"/>
			<path d="M 345.6000061035156 1010.2999877929688 L 358.70001220703125 990.4000244140625 L 375.70001220703125 1009.2000122070312 L 383.5 1000.7000122070312 L 398.5 1015.5 L 384.20001220703125 998.7000122070312 L 376 1008.5 L 360 987.7000122070312 L 346.29998779296875 1009 L 340.3999938964844 1002.2999877929688 Z" fill-rule="evenodd" clip-rule="evenodd" fill="#FFFF66"/>
		</g>
	</g>
	<g>
		<path d="M 668.9000244140625 1015.5 L 602.4000244140625 1015.5 L 687.2999877929688 1035.800048828125 L 654.2999877929688 1024 L 757.2999877929688 1049.0999755859375 L 681.5999755859375 1023.2999877929688 L 715.7000122070312 1031.4000244140625 Z" fill-rule="evenodd" clip-rule="evenodd" fill="#14002E"/>
		<g>
			<path d="M 668.9000244140625 1015.5 L 602.4000244140625 1015.5 L 616.7000122070312 998.7000122070312 L 624.9000244140625 1008.5 L 640.9000244140625 987.7000122070312 L 654.5999755859375 1009 L 660.5 1002.2999877929688 Z" fill-rule="evenodd" clip-rule="evenodd" fill="#300659"/>
			<path d="M 655.2999877929688 1010.2999877929688 L 642.2000122070312 990.4000244140625 L 625.2000122070312 1009.2000122070312 L 617.4000244140625 1000.7000122070312 L 602.4000244140625 1015.5 L 616.7000122070312 998.7000122070312 L 624.9000244140625 1008.5 L 640.9000244140625 987.7000122070312 L 654.5999755859375 1009 L 660.5 1002.2999877929688 Z" fill-rule="evenodd" clip-rule="evenodd" fill="#FFFF66"/>
		</g>
	</g>
	<g>
		<path d="M 545.9000244140625 1047.300048828125 L 496.79998779296875 1047.300048828125 L 520.7000122070312 1062.4000244140625 L 518.9000244140625 1053.5999755859375 L 547.2999877929688 1072.199951171875 L 540.5 1053 L 550.2000122070312 1059.0999755859375 Z" fill-rule="evenodd" clip-rule="evenodd" fill="#14002E"/>
		<g>
			<path d="M 545.9000244140625 1047.300048828125 L 496.79998779296875 1047.300048828125 L 507.3999938964844 1034.800048828125 L 513.4000244140625 1042.0999755859375 L 525.2000122070312 1026.800048828125 L 535.4000244140625 1042.5 L 539.7000122070312 1037.5 Z" fill-rule="evenodd" clip-rule="evenodd" fill="#300659"/>
			<path d="M 535.9000244140625 1043.5 L 526.2000122070312 1028.800048828125 L 513.5999755859375 1042.699951171875 L 507.8999938964844 1036.4000244140625 L 496.79998779296875 1047.300048828125 L 507.3999938964844 1034.800048828125 L 513.4000244140625 1042.0999755859375 L 525.2000122070312 1026.800048828125 L 535.4000244140625 1042.5 L 539.7000122070312 1037.5 Z" fill-rule="evenodd" clip-rule="evenodd" fill="#FFFF66"/>
		</g>
	</g>
</g>
</svg>