<?xml version="1.0" encoding="utf-8"?>
<!-- Generator: Adobe Illustrator 16.0.0, SVG Export Plug-In . SVG Version: 6.00 Build 0)  -->
<!DOCTYPE svg PUBLIC "-//W3C//DTD SVG 1.1//EN" "http://www.w3.org/Graphics/SVG/1.1/DTD/svg11.dtd">
<svg version="1.1" xmlns="http://www.w3.org/2000/svg" xmlns:xlink="http://www.w3.org/1999/xlink" x="0px" y="0px" width="1400px"
	 height="980px" viewBox="0 0 1400 980" enable-background="new 0 0 1400 980" xml:space="preserve">
<g id="BACKGROUND">
	<rect x="-12" y="-10" fill="#FFB762" width="1424" height="1000"/>
</g>
<g id="OBJECTS">
	<path fill="#FFFEFA" d="M864.182,246.377c0,0-1047.297,158.5-658.366,370.596c238.947,130.305-81.027,64.523,40.692,156.114
		s418.056,173.122,552.854,99.04c134.799-74.082-29.17-99.323,271.948-150.983c288.478-49.491,124.642-215.428,187.327-285.262
		C1321.321,366.048,1268.959,240.679,864.182,246.377z"/>
	<path fill="#E0F8FC" d="M493.872,347.442c0,0-186.014,81.236-113.943,163.897C452,594,566.375,838.088,784.188,768.044
		s317.851-68.177,373.832-112.11c55.98-43.934,83.041-125.08,28.541-177.929c-54.501-52.849-243.847-100.273-269.467-137.898
		C891.473,302.481,493.872,347.442,493.872,347.442z"/>
	<path fill="#C7EEF2" d="M453.628,340.553c0,0-128.668,56.191-78.815,113.369c49.852,57.178,128.967,226.016,279.63,177.565
		c150.664-48.45,219.861-47.158,258.583-77.548s57.44-86.519,19.742-123.075c-37.699-36.556-168.672-69.36-186.394-95.386
		S453.628,340.553,453.628,340.553z"/>
	<g>
		<path fill="#35527E" d="M273.427,549.859c0,0-9.272-11.392-17.75-36.828c-7.489-22.471-53.596-57.708-106.937-66.592
			c0,0-16.788,85.713,90.289,97.735C247.691,545.146,263.632,542.692,273.427,549.859z"/>
		<path fill="none" stroke="#6488BC" stroke-miterlimit="10" d="M151.334,449.011c0,0,54.895,60.638,117.645,97.825"/>
		<path fill="none" stroke="#6488BC" stroke-miterlimit="10" d="M150.636,467.058c0,0,13.936,5.622,24.636,6.254"/>
		<path fill="none" stroke="#6488BC" stroke-miterlimit="10" d="M152.781,480.962c0,0,26.913,8.324,39.152,8.298"/>
		<path fill="none" stroke="#6488BC" stroke-miterlimit="10" d="M160.6,500.622c0,0,29.587,9.857,47.392,2.151"/>
		<path fill="none" stroke="#6488BC" stroke-miterlimit="10" d="M177.073,519.934c0,0,34.879,5.39,43.736-6.683"/>
		<path fill="none" stroke="#6488BC" stroke-miterlimit="10" d="M199.612,533.168c0,0,20.385,7.457,37.398-7.559"/>
		<path fill="none" stroke="#6488BC" stroke-miterlimit="10" d="M232.021,541.642c0,0,9.863,0.543,16.803-7.678"/>
		<path fill="none" stroke="#6488BC" stroke-miterlimit="10" d="M170.838,453.531c0,0,5.167,11.628,3.146,18.54"/>
		<path fill="none" stroke="#6488BC" stroke-miterlimit="10" d="M196.481,463.355c0,0,1.769,16.417-5.455,24.629"/>
		<path fill="none" stroke="#6488BC" stroke-miterlimit="10" d="M211.403,471.285c0,0,3.087,19.559-4.747,30.362"/>
		<path fill="none" stroke="#6488BC" stroke-miterlimit="10" d="M232.103,485.851c0,0-3.583,19.727-12.378,26.537"/>
		<path fill="none" stroke="#6488BC" stroke-miterlimit="10" d="M241.31,494.451c0,0,2.308,19.498-5.689,30.138"/>
		<path fill="none" stroke="#6488BC" stroke-miterlimit="10" d="M253.462,512.608c0,0,1.551,9.634-5.866,20.514"/>
	</g>
	<g>
		<path fill="none" stroke="#35527E" stroke-miterlimit="10" d="M217.331,401.004c0,0-8.554,70.796,46.738,156.834"/>
		<path fill="#12B3D8" d="M217.011,405.336c0,0-19.891-34.222-4.03-58.175C212.98,347.161,230.731,385.43,217.011,405.336z"/>
		<path fill="#039ECA" d="M218.164,434.31c0,0-10.034-34.118-40.615-41.375C177.549,392.935,192.627,423.396,218.164,434.31z"/>
		<path fill="#12B3D8" d="M248.391,404.129c0,0-31.659,8.773-29.443,36.39C218.948,440.519,248.698,427.02,248.391,404.129z"/>
		<path fill="#12B3D8" d="M182.091,430.833c0,0,24.848,3.579,42.26,37.126C224.351,467.959,195.861,467.372,182.091,430.833z"/>
		<path fill="#039ECA" d="M250.862,432.93c0,0-33.05,19.548-23.156,47.105C227.707,480.035,257.322,455.037,250.862,432.93z"/>
		<path fill="#039ECA" d="M193.183,468.125c0,0,22.564,1.206,41.381,31.879C234.564,500.004,214.012,504.019,193.183,468.125z"/>
		<path fill="#12B3D8" d="M254.054,464.56c0,0-29.156,22.414-14.645,49.423C239.409,513.983,262.609,495.43,254.054,464.56z"/>
	</g>
	<g>
		<polygon fill="#6EE4FF" points="292.672,585.057 289.08,493.624 414.438,437.678 417.733,524.975 		"/>
		<polygon fill="#0DCBFF" points="289.08,493.624 236.995,465.571 236.995,553.836 292.672,585.057 		"/>
		<polygon fill="#0EA2CA" points="236.995,465.571 360.322,408.956 414.438,437.678 289.08,493.624 		"/>
		<path fill="#117A8C" d="M287.397,456.111l54.06-24.817c2.272-1.043,4.899-0.972,7.112,0.191l5.569,2.929
			c2.918,1.535,2.782,5.76-0.229,7.104l-54.877,24.491c-2.283,1.019-4.91,0.92-7.11-0.267l-4.752-2.565
			C284.302,461.629,284.436,457.471,287.397,456.111z"/>
		<polygon fill="#117A8C" points="236.995,502.539 290.541,530.826 289.08,493.624 236.995,465.571 		"/>
		<polygon fill="#139BBA" points="415.749,472.402 290.541,530.826 289.08,493.624 414.438,437.678 		"/>
		<path fill="#139BBA" d="M268.425,500.758l-21.403-9.484c0,0-3.592,1.627-3.592,4.742v23.068c0,2.207,1.283,4.213,3.287,5.138
			l20.062,9.259L268.425,500.758z"/>
		<path fill="#6EE4FF" d="M266.037,533.48h2.388v-32.723h-2.388c-1.657,0-3,1.344-3,3v26.723
			C263.037,532.138,264.38,533.48,266.037,533.48z"/>
		<path fill="none" stroke="#0E4B51" stroke-width="2" stroke-linecap="round" stroke-linejoin="round" stroke-miterlimit="10" d="
			M248.145,504.07v13.314c0,0.915,0.535,1.746,1.369,2.125l5.208,2.368c1.546,0.702,3.301-0.428,3.301-2.126v-11.191"/>
		<path fill="#0DCBFF" d="M379.929,481.926c0-2.227-1.416-4.207-3.523-4.925l-3.361-1.147l-37.867,15.42l3.442,40.694
			c0,0,39.504-16.159,40.592-18.025l0.019-0.008l-0.002-0.016c0.434-0.754,0.7-1.624,0.7-2.58V481.926z"/>
		<path fill="#117A8C" d="M335.178,531.685L335.178,531.685v-40.411l3.361,1.147c2.107,0.719,3.523,2.698,3.523,4.925v29.413
			C342.062,530.327,338.554,532.837,335.178,531.685z"/>
		<path fill="none" stroke="#0E4B51" stroke-width="3" stroke-linecap="round" stroke-linejoin="round" stroke-miterlimit="10" d="
			M350.968,496.35l0.469,13.36c0.101,2.891,3.035,4.81,5.724,3.742l11.162-4.427c2.114-0.838,3.47-2.918,3.384-5.19l-0.533-14.133"
			/>
	</g>
	<g enable-background="new    ">
		<g>
			<polygon fill="#DC9E54" points="529.274,502.164 514.008,493.575 522.792,488.417 538.059,497.007 			"/>
		</g>
		<path fill="#855F33" d="M528.871,506.992c0.127-0.933,0.225-1.866,0.299-2.805c0.031-0.402,0.307-1.666,0.089-2.032
			c-0.132-0.221-0.826-0.465-1.036-0.583c-1.728-0.972-3.456-1.944-5.184-2.917c-3.01-1.693-6.02-3.387-9.03-5.08
			c-0.172,6.604-1.797,13.395-4.809,19.286c-2.083,4.077-7.289,12.113-12.914,9.036c4.374,2.46,8.747,4.921,13.12,7.382
			c1.578,0.888,3.083,1.958,4.988,1.804c4.109-0.333,7.235-4.617,9.117-7.869C526.374,518.268,528.099,512.637,528.871,506.992z"/>
		<g>
			<polygon fill="#DC9E54" points="497.709,520.699 482.443,512.109 491.227,506.952 506.493,515.541 			"/>
		</g>
		<g>
			<polygon fill="#8B6436" points="494.738,636.767 479.472,628.178 482.443,512.109 497.709,520.699 			"/>
		</g>
		<g>
			<path fill="#C48D4B" d="M538.059,497.007l-2.972,116.067l-40.349,23.692l2.971-116.067l8.784-5.158
				c-0.3,11.717,4.556,18.221,10.848,14.526s11.634-16.187,11.934-27.903L538.059,497.007z"/>
		</g>
	</g>
	<g>
		<g>
			<path fill="#E2B08F" d="M601.015,639.743l-57.542,39.804c0,0-6.49,22.064,24.229,26.824l44.996-40.669L601.015,639.743z"/>
			<path fill="#BA8B6A" d="M567.701,706.371l-24.229-26.824C543.472,679.547,536.982,701.611,567.701,706.371z"/>
		</g>
		<g>
			<path fill="#C99570" d="M619.458,729.302c-9.241,4.032-30.58-2.302-30.58-2.302c6.802-20.58,9.224-87.689,9.224-87.689
				c8.653-8.653,25.959,0,25.959,0S628.682,725.27,619.458,729.302z"/>
			<path fill="#E2B08F" d="M619.458,729.302c-9.241,4.032-30.58-2.302-30.58-2.302C612.241,710.836,619.458,729.302,619.458,729.302
				z"/>
		</g>
		<g>
			<path fill="#BA8B6A" d="M619.458,650.992l-99.371,22.064l-10.383-25.526l101.24-17.306
				C610.943,630.225,620.617,631.09,619.458,650.992z"/>
			<path fill="#E2B08F" d="M520.086,673.057l-10.383-25.526C532.201,647.963,520.086,673.057,520.086,673.057z"/>
		</g>
		<g>
			<path fill="#C99570" d="M523.344,605.996l-6.82,24.229l102.934,20.768c0,0,6.196-12.98,3.167-22.498
				C619.596,618.976,523.344,605.996,523.344,605.996z"/>
			<path fill="#E2B08F" d="M523.344,605.996l-6.82,24.229C516.523,630.225,534.389,620.273,523.344,605.996z"/>
		</g>
		<g>
			<path fill="#BA8B6A" d="M692.714,703.048l-32.587,9.519l-48.751-61.574c8.981-23.468,29.42-8.515,29.42-8.515L692.714,703.048z"
				/>
			<path fill="#E2B08F" d="M692.714,703.048l-32.587,9.519C660.127,712.566,666.184,680.845,692.714,703.048z"/>
		</g>
		<path fill="#C99570" d="M624.72,655.162l75.782,6.357c0,0,5.48-17.306-4.615-21.921c-10.095-4.615-72.428-4.134-72.428-4.134
			L624.72,655.162z"/>
		<path fill="#BA8B6A" d="M669.227,624.287l-60.757,19.337l-11.496-16.165l50.762-13.845
			C647.736,613.614,659.818,610.762,669.227,624.287z"/>
	</g>
	<g>
		<path fill="#0DA5CE" d="M488.05,161.601c0,0-106.226,51.183,12.468,154.215c0,0,50.145-0.459,4.521-92.856
			C497.993,208.688,484.367,189.96,488.05,161.601z"/>
		<path fill="none" stroke="#2E547B" stroke-miterlimit="10" d="M500.519,315.816c0,0-4.043-31.938-20.516-59.379
			c-16.472-27.442-16.079-59.107,8.047-94.835"/>
		<path fill="none" stroke="#2E547B" stroke-miterlimit="10" d="M521.875,299.827c0,0-7.364-13.566-29.976-17.9"/>
		<path fill="none" stroke="#2E547B" stroke-miterlimit="10" d="M479.178,295.347c0,0,0.231-17.062,10.227-19.902"/>
		<path fill="none" stroke="#2E547B" stroke-miterlimit="10" d="M476.841,250.687c0,0,28.949-10.88,43.884,11.894"/>
		<path fill="none" stroke="#2E547B" stroke-miterlimit="10" d="M460.554,272.009c0,0-1.619-25.505,13.155-28.335"/>
		<path fill="none" stroke="#2E547B" stroke-miterlimit="10" d="M468.888,222.953c0,0,24.577-17.387,36.152,0.006"/>
		<path fill="none" stroke="#2E547B" stroke-miterlimit="10" d="M444.45,228.716c0,0,10.977-14.337,24.21-13.191"/>
		<path fill="none" stroke="#2E547B" stroke-miterlimit="10" d="M472.684,192.273c0,0,10.085-8.556,19.172,3.425"/>
		<path fill="none" stroke="#2E547B" stroke-miterlimit="10" d="M450.888,197.758c0,0,13.387-16.069,24.047-11.733"/>
	</g>
	<path fill="#24578C" d="M432.719,231.991c-13.148-4.941-25.064-13.204-31.338-25.549c-5.891,5.435-9.627,12.771-12.901,20.086
		c-3.442,7.691-6.485,15.712-8.958,23.905c2.685,3.361,4.968,6.095,5.73,7.057c7.694,9.697,20.028,24.167,31.154,29.912
		c-6.617,0.825-12.069-4.738-18.062-7.661c-4.246-2.07-8.984-2.841-13.616-3.77c-3.508-0.703-6.992-1.521-10.453-2.43
		c-1.331,8.969-1.798,17.976-1.195,26.836c8.649,3.546,17.792,5.888,27.088,6.874c4.424,0.469,10.411,0.171,13.799,2.838
		c-4.707,6.71-17.298,5.803-24.572,5.539c-4.75-0.172-9.499-0.345-14.249-0.518c1.441,6.601,3.582,13.056,6.532,19.28
		c0.897,1.893,1.9,3.736,2.957,5.547c6.575-0.282,13.131-0.926,19.627-1.998c5.73-0.945,21.719-7.704,25.767-3.94
		c-2.615,2-5.636,3.501-8.555,5.123c-2.051,1.14-4.104,2.28-6.217,3.3c-3.337,1.61-6.812,2.914-10.282,4.214
		c-3.912,1.467-7.824,2.934-11.735,4.4c9.808,9.389,23.588,13.85,37.169,14.933c22.456,1.79,45.432-5.083,63.463-18.53
		c10.05-7.494,14.346-8.826,26.406-11.857c10.402-2.614,20.95-6.84,27.595-15.69c3.027-4.032,5.028-8.774,6.225-13.672
		c3.541-14.498-0.234-30.59-9.853-42.001c-1.994-2.366-4.2-4.492-6.559-6.426c-12.325,13.22-31.902,34.761-37.496,36.529
		c2.956-11.913,9.221-23.677,15.714-34.036c2.341-3.735,4.868-7.506,6.787-11.467c-8.086-3.491-16.91-5.651-25.61-6.958
		c-0.457-0.069-0.917-0.116-1.374-0.181c-4.014,12.918-8.016,25.84-12.07,38.746c-1.121,3.568-2.814,13.747-8.969,10.075
		c-2.913-1.738-1.128-16.953-1.188-20.341c-0.179-10.247-0.356-20.52,0.037-30.756c-9.875-0.838-19.73-1.759-29.377-3.975
		c-0.577-0.133-1.154-0.286-1.731-0.43c-1.843,7.574-3.333,15.788-3.73,17.088C436.193,245.675,434.324,238.865,432.719,231.991z
		 M499.331,323.286c3.351-3.708,8.315-5.639,13.273-6.267c4.958-0.627,9.981-0.075,14.949,0.478c1.093,0.122,2.296,0.3,3.004,1.142
		c1.046,1.245,0.316,3.296-1.043,4.188s-3.084,0.951-4.71,0.979l-1.888-0.902c-7.106,2.462-14.402,4.377-21.801,5.725
		c-0.681,0.124-1.406,0.239-2.045-0.027C497.143,327.8,497.931,324.834,499.331,323.286z M415.436,258.663
		c0.543,2.837-0.298,6.145-2.752,7.669l-2.265-1.187c-7.117-5.468-13.064-12.45-17.33-20.347c2.832-2.171,6.89-0.572,10.023,1.135
		C408.48,248.857,414.285,252.659,415.436,258.663z M435.955,324.093l-2.83,0.712c-7.61,1.992-15.513,2.863-23.375,2.577
		c-1.196-1.313,0.083-3.414,1.54-4.431c4.953-3.455,11.567-2.872,17.562-2.146C431.548,321.131,434.645,321.714,435.955,324.093z
		 M455.011,348.543c13.317-3.233,8.627,4.859-1.192,7.309c-11.178,2.79-23.077,3.166-34.439,1.341
		C431.257,354.31,443.134,351.426,455.011,348.543z"/>
	<g>
		<path fill="#2A5081" d="M979.606,287.594c0,0-47.913-128.912,101.392-117.91c0,0,25.52,23.255-27.694,70.673
			C1000.091,287.775,997.022,261.867,979.606,287.594z"/>
		<path fill="none" stroke="#0BA4CD" stroke-miterlimit="10" d="M1080.998,169.684c0,0-76.008,18.727-102.786,113.649"/>
		<path fill="none" stroke="#0BA4CD" stroke-miterlimit="10" d="M1086.82,190.712c0,0-32.525,10.45-39.974-4.804"/>
		<path fill="none" stroke="#0BA4CD" stroke-miterlimit="10" d="M1020.055,208.192c0,0,36.021,29.445,52.896,11.611"/>
		<path fill="none" stroke="#0BA4CD" stroke-miterlimit="10" d="M992.921,246.047c0,0,26.151,22.125,41.671,9.62"/>
		<path fill="none" stroke="#0BA4CD" stroke-miterlimit="10" d="M984.565,200.193c0,0-4.585,21.222,11.977,39.331"/>
		<path fill="none" stroke="#0BA4CD" stroke-miterlimit="10" d="M1017.624,175.975c0,0-10.981,22.444-2,36.106"/>
		<path fill="none" stroke="#0BA4CD" stroke-miterlimit="10" d="M1045.337,169.931c0,0-11.271,10.482-3.484,19.403"/>
	</g>
	<g>
		<path fill="none" stroke="#35527E" stroke-miterlimit="10" d="M1046.05,252.925c0,0-39.44,18.493-66.103,74.992"/>
		<path fill="#12B3D8" d="M1043.703,254.162c0,0,11.285-21.384,28.828-20.924C1072.531,233.237,1058.456,254.823,1043.703,254.162z"
			/>
		<path fill="#039ECA" d="M1029.068,264.141c0,0,14.424-16.245,8.28-34.435C1037.349,229.706,1026.453,247.379,1029.068,264.141z"/>
		<path fill="#12B3D8" d="M1054.488,270.025c0,0-14.795-13.558-28.383-3.468C1026.105,266.558,1042.731,277.596,1054.488,270.025z"
			/>
		<path fill="#12B3D8" d="M1019.188,244.33c0,0,6.192,14.03-5.546,33.912C1013.643,278.242,1004.721,263.294,1019.188,244.33z"/>
		<path fill="#039ECA" d="M1040.371,280.631c0,0-20.827-10.789-31.897,3.259C1008.474,283.89,1031.012,291.135,1040.371,280.631z"/>
		<path fill="#039ECA" d="M1003.464,262.15c0,0,6.683,12.079-3.113,31.757C1000.351,293.908,991.617,284.562,1003.464,262.15z"/>
		<path fill="#12B3D8" d="M1025.021,292.526c0,0-21.05-7.845-30.342,8.417C994.679,300.944,1011.801,306.953,1025.021,292.526z"/>
	</g>
	<g>
		<path fill="#D15068" d="M625.021,103.555c0,0,333.13-86.548,385.606,234c0,0-73.435,81.97-151.606,94.027L625.021,103.555z"/>
		<path fill="#AD3D4D" d="M625.021,103.555c2.066-0.544,188.055,10.685,234,328.027c0,0-260.712,63.041-409.767-66.247
			C449.254,365.336,466.884,145.227,625.021,103.555z"/>
		<path fill="#FFCB5C" d="M625.021,180.487c-130.183,19.208-122.536,220.595-122.516,221.128
			C610,458.61,745.837,449.47,814.673,439.594l0,0C808.792,362.126,755.377,161.254,625.021,180.487z"/>
		<path fill="#966B53" d="M603.498,436.619c16.674,3.369,33.342,5.795,49.731,7.427l-18.227-264.583c-0.002,0-0.004,0-0.005,0
			L603.498,436.619z"/>
		<path fill="#D8A44A" d="M635,179.438c0,0,4.666,155.432-31.506,257.213l-28.692-23.233
			C574.802,413.418,609.72,385.675,635,179.438z"/>
	</g>
	<g>
		<polygon fill="#10A5D0" points="1016.801,314.761 1010.627,337.555 1013.714,338.98 1025.233,319.035 		"/>
		<path fill="#395177" d="M1028.155,318.12c-1.117-1.414-2.566-2.822-4.327-4.072c-1.76-1.25-3.566-2.153-5.271-2.741l-4.168-2.958
			l-3.297,3.643c-1.82,2.565,0.93,7.644,6.144,11.344c5.212,3.7,10.914,4.621,12.735,2.057l3.296-3.644L1028.155,318.12z"/>
		
			<ellipse transform="matrix(0.8154 0.5788 -0.5788 0.8154 371.3169 -534.486)" fill="#3CDCFE" cx="1023.829" cy="315.049" rx="11.575" ry="5.695"/>
	</g>
	<g enable-background="new    ">
		<g>
			<polygon fill="#DC9E54" points="734.496,633.441 719.229,624.852 728.014,619.694 743.279,628.283 			"/>
		</g>
		<path fill="#855F33" d="M734.092,638.269c0.128-0.933,0.226-1.866,0.3-2.805c0.031-0.401,0.307-1.666,0.089-2.031
			c-0.132-0.222-0.826-0.465-1.036-0.583c-1.729-0.973-3.456-1.945-5.185-2.917c-3.01-1.693-6.02-3.388-9.029-5.081
			c-0.173,6.604-1.799,13.395-4.81,19.286c-2.083,4.078-7.289,12.114-12.913,9.037c4.373,2.46,8.746,4.921,13.12,7.381
			c1.578,0.888,3.083,1.958,4.988,1.804c4.108-0.333,7.234-4.616,9.116-7.869C731.595,649.545,733.32,643.913,734.092,638.269z"/>
		<g>
			<polygon fill="#DC9E54" points="702.931,651.977 687.665,643.387 696.449,638.229 711.715,646.818 			"/>
		</g>
		<g>
			<polygon fill="#8B6436" points="699.959,768.044 684.693,759.454 687.665,643.387 702.931,651.977 			"/>
		</g>
		<g>
			<path fill="#C48D4B" d="M743.279,628.283l-2.971,116.067l-40.349,23.693l2.971-116.067l8.784-5.158
				c-0.3,11.716,4.556,18.221,10.848,14.526c6.291-3.694,11.634-16.188,11.934-27.903L743.279,628.283z"/>
		</g>
	</g>
	<g>
		<g>
			<path fill="#24578C" d="M1097.451,334.837c0,0,103.33,72.406-39.815,160.696c0,0-52.874-9.15,11.272-98.837
				C1078.815,382.843,1096.44,365.421,1097.451,334.837z"/>
			<path fill="none" stroke="#2D679B" stroke-miterlimit="10" d="M1057.636,495.533c0,0,9.788-33.027,31.926-59.159
				c22.137-26.132,27.193-59.639,7.89-101.537"/>
			<path fill="none" stroke="#2D679B" stroke-miterlimit="10" d="M1037.847,474.959c0,0,10.12-13.054,34.747-13.723"/>
			<path fill="none" stroke="#2D679B" stroke-miterlimit="10" d="M1083.708,477.606c0,0,2.705-18.057-7.36-22.784"/>
			<path fill="none" stroke="#2D679B" stroke-miterlimit="10" d="M1093.895,430.85c0,0-28.69-16.493-48.397,4.976"/>
			<path fill="none" stroke="#2D679B" stroke-miterlimit="10" d="M1107.408,456.18c0,0,6.117-26.654-8.994-32.195"/>
			<path fill="none" stroke="#2D679B" stroke-miterlimit="10" d="M1107.085,402.937c0,0-22.948-22.607-38.177-6.241"/>
			<path fill="none" stroke="#2D679B" stroke-miterlimit="10" d="M1131.896,413.245c0,0-9.114-17.037-23.286-18.114"/>
			<path fill="none" stroke="#2D679B" stroke-miterlimit="10" d="M1108.379,369.882c0,0-9.172-10.778-20.838,0.305"/>
			<path fill="none" stroke="#2D679B" stroke-miterlimit="10" d="M1130.447,379.441c0,0-11.359-19.282-23.366-16.546"/>
		</g>
	</g>
	<path fill="#0DA5CE" d="M1169.076,426.527c-0.133-1.428,0.088-10.231-0.194-18.449c-0.627,0.025-1.256,0.06-1.88,0.074
		c-10.438,0.223-20.813-0.936-31.193-2.185c-1.786,10.656-4.168,21.229-6.547,31.774c-0.787,3.487-2.201,19.583-5.582,20.755
		c-7.144,2.476-6.713-8.4-7.106-12.326c-1.424-14.197-2.79-28.4-4.171-42.603c-0.486-0.031-0.972-0.08-1.458-0.107
		c-9.267-0.513-18.843-0.17-27.942,1.704c1.135,4.502,2.937,8.938,4.556,13.297c4.488,12.088,8.44,25.581,8.943,38.518
		c-5.399-3.023-21.008-29.464-30.907-45.757c-2.85,1.492-5.583,3.216-8.149,5.232c-12.378,9.726-19.723,25.54-19.169,41.271
		c0.187,5.315,1.238,10.641,3.502,15.454c4.968,10.564,14.958,17.187,25.143,22.114c11.807,5.713,15.958,8.009,24.733,17.9
		c15.745,17.749,38.004,29.767,61.581,32.727c14.259,1.79,29.447,0.133,41.587-7.466c-3.726-2.352-7.452-4.704-11.179-7.057
		c-3.305-2.087-6.615-4.177-9.717-6.555c-1.965-1.506-3.84-3.123-5.715-4.739c-2.668-2.3-5.467-4.498-7.739-7.123
		c4.987-3.02,20.054,7.384,25.77,9.587c6.48,2.498,13.114,4.566,19.845,6.266c1.479-1.645,2.91-3.334,4.242-5.097
		c4.379-5.797,7.973-12.006,10.874-18.516c-4.942-0.839-9.885-1.677-14.827-2.516c-7.57-1.284-20.769-3.043-24.193-10.981
		c4.069-2.029,10.189-0.44,14.859,0.022c9.812,0.973,19.758,0.511,29.45-1.3c2.52-9.022,3.966-18.425,4.511-27.974
		c-3.769,0.197-7.542,0.296-11.315,0.271c-4.983-0.033-10.042-0.25-14.871,0.978c-6.816,1.735-13.639,6.314-20.296,4.045
		c12.722-3.551,28.559-15.856,38.582-24.225c0.994-0.83,3.938-3.164,7.43-6.062c-0.8-8.992-2.227-17.928-4.135-26.608
		c-1.816-8.256-4.104-16.634-9.024-23.508c-9.124,11.407-23.2,17.39-37.839,19.679
		C1176.404,413.8,1173.016,420.434,1169.076,426.527z M1090.318,492.623c-0.717,0.139-1.442-0.136-2.118-0.409
		c-7.354-2.976-14.479-6.517-21.292-10.581l-2.143,0.528c-1.673-0.378-3.441-0.808-4.655-2.021c-1.213-1.213-1.527-3.487-0.18-4.549
		c0.91-0.718,2.192-0.645,3.347-0.536c5.248,0.492,10.555,0.997,15.542,2.707c4.986,1.709,9.7,4.767,12.368,9.314
		C1092.302,488.976,1092.48,492.207,1090.318,492.623z M1207.129,427.783c3.602-1.092,8.135-1.875,10.595,0.974
		c-6.097,7.242-13.734,13.181-22.256,17.305l-2.593,0.741c-2.208-2.099-2.369-5.696-1.2-8.51
		C1194.148,432.337,1200.958,429.654,1207.129,427.783z M1164.513,499.604c6.348,0.534,13.304,1.348,17.68,5.978
		c1.287,1.361,2.158,3.805,0.642,4.905c-8.182-1.388-16.157-3.979-23.591-7.667l-2.771-1.341
		C1158.335,499.303,1161.658,499.363,1164.513,499.604z M1166.505,539.216c-12.126-0.549-24.335-3.485-35.283-8.759
		c-9.617-4.633-12.729-13.996,0.334-7.805C1143.205,528.173,1154.855,533.694,1166.505,539.216z"/>
	<g>
		<g>
			<path fill="#9E803C" d="M964.104,382.517c0.544-0.195,1.178-0.28,1.708,0.01c-1.222-0.67-2.442-1.341-3.663-2.012
				c-3.317-1.822-1.959-0.808-5.454-2.728c-1.436-0.789-2.857-1.701-4.347-2.388c-0.865-0.399-1.752-0.124-2.545,0.347
				c1.191,0.655,2.382,1.309,3.573,1.963c3.258,1.79,6.977,3.565,8.084,4.173c0.497,0.273,1.12,0.781,1.675,0.92
				C963.521,382.9,963.629,382.687,964.104,382.517z"/>
			<g>
				<polygon fill="#D68F41" points="828.483,513.849 814.983,506.699 827.27,467.319 840.77,474.468 				"/>
			</g>
			<g>
				<polygon fill="#F5B667" points="829.25,474.523 815.75,467.375 949.804,375.746 963.304,382.895 				"/>
			</g>
			<path fill="#D1AA50" d="M826.123,480.557c-0.092-2.244,1.289-4.781,3.127-6.033c-1.23-0.676-2.461-1.353-3.692-2.029
				c-3.343-1.836-2.269-0.979-5.713-2.871c-0.974-0.535-1.947-1.07-2.921-1.605c-0.271-0.148-0.843-0.626-1.162-0.638
				c-0.359-0.014-1.092,0.944-1.322,1.222c-0.575,0.69-1.027,1.484-1.351,2.321c-0.529,1.371-0.922,3.458,0.492,4.408
				c0.381,0.257,0.822,0.452,1.225,0.673c2.503,1.375,0.237-0.138,4.412,2.156c2.316,1.272,4.634,2.545,6.95,3.818
				c0.298,0.164,0.596,0.327,0.894,0.491C826.386,482.099,826.155,481.275,826.123,480.557z"/>
			<g>
				<path fill="#99642E" d="M963.304,382.895c1.972-1.17,3.358-0.433,3.446,1.549c0.092,2.093-1.312,4.798-3.121,6.037
					l-115.461,78.942l-13.697,43.935l-5.987,0.491l12.286-39.38l-11.194,7.633c-1.965,1.168-3.363,0.445-3.452-1.545
					c-0.086-2.097,1.312-4.799,3.127-6.033L963.304,382.895z"/>
			</g>
		</g>
		<g enable-background="new    ">
			<polygon fill="#F5B667" points="1046.896,568.104 1013.467,549.162 1006.504,553.251 1051.777,578.125 			"/>
			<path fill="#806831" d="M1037.901,534.814l-133.179-73.17l28.697,58.912l133.179,73.171L1037.901,534.814z M1032.286,538.111
				l19.491,40.014l-45.273-24.874L1032.286,538.111z"/>
			<g>
				<polygon fill="#CEA74E" points="1071.595,392.206 938.417,319.035 944.622,317.756 1077.801,390.926 				"/>
			</g>
			<g>
				<polygon fill="#D68F41" points="1037.772,527.086 904.595,453.916 938.417,319.035 1071.595,392.206 				"/>
			</g>
			<g>
				<polygon fill="#F5B667" points="947.902,579.858 814.725,506.688 904.595,453.916 1037.772,527.086 				"/>
			</g>
			<g>
				<polygon fill="#99642E" points="1071.595,392.206 1077.801,390.926 1043.608,527.267 1072.616,586.817 1066.599,593.727 
					1037.901,534.814 952.073,585.213 923.354,677.658 917.365,678.156 947.902,579.858 1037.772,527.086 				"/>
			</g>
			<polygon fill="#D68F41" points="834.305,495.062 828.483,514.287 814.725,506.688 			"/>
			<polygon fill="#99642E" points="841.441,491 836.426,510.227 828.483,514.287 834.305,495.062 			"/>
			<polygon fill="#99642E" points="825.836,522.703 800.56,604.067 804.994,608.569 830.941,525.048 			"/>
			<path fill="#D68F41" d="M814.725,506.688l-30.537,98.299l133.178,73.17l30.537-98.298L814.725,506.688z M907.137,660.021
				l-105.912-58.493l24.385-78.493l105.912,58.493L907.137,660.021z"/>
			<polygon fill="#F5B667" points="801.225,601.528 808.197,598.258 909.177,653.455 907.137,660.021 			"/>
		</g>
		<g>
			<path fill="#FFE7C5" d="M809.711,472.365l48.995-79.949c6.908-11.273,22.122-13.962,32.476-5.74l0,0
				c10.103,8.022,11.18,22.971,2.33,32.357l-64.32,68.229c-4.413,4.682-11.685,5.182-16.697,1.148l0,0
				C807.663,484.523,806.472,477.652,809.711,472.365z"/>
			<path fill="#FFE7C5" d="M831.632,473.149c0,0-0.671-11.459-14.771-7.691c0,0-20.64-4.557-50.876,5.062
				c0,0-14.026-2.026-18.197,2.397c0,0,3.734,11.08-0.66,11.731c-4.396,0.651-0.798,0.62-0.798,0.62s11.586,6.583,18.263,2.358
				C764.593,487.626,845.265,510.575,831.632,473.149z"/>
			<path fill="#BC8B42" d="M888.692,368.528c0,0,8.51-13.766,35.955-16.561c0,0-11.356,30.751-23.928,28.994
				C888.149,379.203,888.692,368.528,888.692,368.528z"/>
			<path fill="#294768" d="M926.886,480.313l-84.207,4.234l-54.691,2.752c-0.626,0.034-1.255,0.094-1.869,0.201
				c-8.509,1.327-14.91,8.743-14.815,17.543c0.094,9.038,7.018,16.514,16.016,17.321l1.812,0.164l92.21,8.176l43.015,3.813
				L926.886,480.313z"/>
			<path fill="#294768" d="M776.605,492.376c-4.044,4.02-6.059,9.994-4.679,16.101l28.386,125.067l4.49,19.783l11.597-2.329
				l-1.618-23.092l-8.21-117.143l-0.514-7.324c-0.154-2.124-0.674-4.133-1.505-5.961c-2.861-6.296-9.364-10.505-16.68-10.109
				C783.416,487.606,779.492,489.491,776.605,492.376z"/>
			<polygon fill="#8E442B" points="804.556,650.335 792.12,661.533 818.41,656.414 816.546,650.866 			"/>
			<path fill="#F2B853" d="M868.241,409.836c10.999,25.041,32.119,68.884,62.371,113.281c0,0,26.11-0.569,42.057-7.069
				c18.604-7.582,39.553-13.44,39.553-13.44c-7.425-46.662-25.646-113.523-35.729-141.129c-3.579-9.8-14.587-14.662-24.249-10.725
				l-71.931,29.318C868.632,384.833,863.168,398.287,868.241,409.836z"/>
			<path fill="none" stroke="#BC8B42" stroke-miterlimit="10" d="M906.668,387.953c0,0-9.869,5.278-14.67,5.278
				c-4.802,0-3.37,11.985,0,12.802c3.369,0.817,8.722,0,8.722,0l31.055,89.887"/>
			
				<rect x="894.054" y="351.098" transform="matrix(-0.9231 0.3845 -0.3845 -0.9231 1880.0259 346.449)" fill="#E88F80" width="22.651" height="20.134"/>
			<path fill="#F49986" d="M876.184,341.408c1.746,11.354,8.039,27.707,16.808,24.055c8.768-3.652,24.295-20.439,19.797-31.239
				s-15.253-16.594-24.021-12.942C879.999,324.934,874.404,329.845,876.184,341.408z"/>
			<path fill="#30537D" d="M903.679,317.088c0,0-25.11-3.975-29.31,4.505c0,0-7.42,18.78,2.272,22.369c0,0-1.241-9.108-0.163-11.329
				c0,0,20.618,20.008,37.331,19.316C913.81,351.95,926.721,323.5,903.679,317.088z"/>
			<path fill="#F49986" d="M895.489,342.623c0,0,1.708-11.281,7.403-7.464c5.694,3.817,2.417,17.246-1.587,18.631L895.489,342.623z"
				/>
			<path fill="#FFFFFF" d="M891.937,352.076l-8.98,4.59c0,0,3.05,2.764,4.657,1.997
				C889.221,357.896,892.485,353.979,891.937,352.076z"/>
			<path fill="#F49986" d="M878.941,345.737c0,0-0.837,7.448-4.572,9.48c0,0,4.458,2.491,8.397-0.73L878.941,345.737z"/>
			<path fill="#32527B" d="M850.771,537.28c2.021,8.1,9.654,13.532,17.997,13.225l1.53-0.057l44.394-1.602l63.832-2.304
				c45.114,0.148,33.697-43.936,33.697-43.936l-14.41-5.244c-3.629-1.321-7.365-2.328-11.167-3.012l-10.083-1.812
				c-9.754-1.753-19.772-1.343-29.351,1.201l-82.468,21.902c-2.173,0.376-4.183,1.15-5.966,2.222
				C852.385,521.693,848.808,529.412,850.771,537.28z"/>
			<path fill="#32527B" d="M857.934,681.19l11.826-0.421l1.94-20.577L883.63,533.5c0.053-0.54,0.078-1.082,0.062-1.604
				c0.021-2.47-0.506-4.837-1.456-6.991c-2.408-5.461-7.583-9.525-13.933-10.22c-9.748-1.076-18.22,6.093-19.13,15.502
				c-0.089,0.885-0.102,1.799-0.049,2.722l7.684,129.31L857.934,681.19z"/>
			<polygon fill="#8E442B" points="857.874,678.214 844.206,687.869 870.916,685.883 869.719,680.154 			"/>
			<path fill="#FFE7C5" d="M947.425,482.245l36.333-103.596c4.341-12.488-3.222-25.96-16.144-28.758l0,0
				c-12.608-2.73-24.853,5.912-26.505,18.706l-17.555,108.022c-0.823,6.381,3.398,12.323,9.695,13.644l0,0
				C939.319,491.534,945.389,488.102,947.425,482.245z"/>
			<path fill="#AD3D4D" d="M871.662,335.213c0,0-1.809-24.04,19.811-32.731c12.415-4.991,25.926,3.482,26.941,16.824
				c0.336,4.403,0.121,9.666-0.999,15.908H871.662z"/>
			<path fill="#A8313D" d="M873.32,341.386c0,0,17.286-10.005,43.773-1.279c0,0,4.937-1.747,0.321-6.044
				c-4.614-4.297-28.737-6.885-45.753,1.15C871.662,335.213,868.568,340.067,873.32,341.386z"/>
			<path fill="#BC8B42" d="M888.692,368.528c0,0,20.358,7.889,35.955-16.561c0,0,1.964,28.87-18.697,29.074
				S877.848,375.759,888.692,368.528z"/>
			<path fill="#FED061" d="M924.647,351.967c0,0-1.293,25.549-33.604,25.004c0,0-10.795-2.724-2.351-8.444
				c0,0-13.384,4.858-6.691,12.235c6.691,7.377,4.521,8.194,4.521,8.194s33.777,5.448,44.396-20.974
				C930.917,367.983,935.192,357.082,924.647,351.967z"/>
			<ellipse fill="#BC8B42" cx="894.466" cy="400.449" rx="2.468" ry="3.269"/>
			<path fill="#FFE7C5" d="M843.964,483.938c0,0,2.982,7.061,1.861,12.436c0,0,9.834,3.97,16.371,2.847
				c0,0,57.686,5.67,71.033-2.847c13.347-8.517,13.606-12.727,13.606-12.727s-8.222-17.679-22.354-12.727
				c0,0-38.312-3.445-60.643,9.395C863.839,480.313,846.22,479.747,843.964,483.938z"/>
			<path fill="#F49986" d="M748.252,484.893c2.268-0.624,4.104-2.292,4.922-4.497c0.944-2.548,1.821-5.884,0.988-7.999
				c-1.499-3.806-5.13,2.165-5.13,2.165s-2.838-15.792-9.47-13.063c-5.567,2.29-5.026,13.016-0.797,21.016
				c1.347,2.545,4.285,3.81,7.062,3.046L748.252,484.893z"/>
			
				<rect x="854.238" y="670.927" transform="matrix(0.9871 0.1601 -0.1601 0.9871 119.1909 -129.5488)" fill="#466F9B" width="18.795" height="8.105"/>
			
				<rect x="801.532" y="642.326" transform="matrix(0.997 0.0771 -0.0771 0.997 52.2565 -60.606)" fill="#466F9B" width="18.794" height="8.105"/>
			<g>
				<path fill="#F49986" d="M841.238,498.158c-3.124,0.607-6.366-0.374-8.572-2.669c-1.655-1.722-3.226-3.817-3.385-5.685
					c-0.348-4.076,5.558-0.339,5.558-0.339s-4.473-15.41,2.681-15.911s11.86,13.573,9.398,23.5L841.238,498.158z"/>
			</g>
		</g>
		<g>
			<path fill="#9E803C" d="M1083.626,448.526c0.544-0.195,1.179-0.28,1.708,0.01c-1.221-0.67-2.442-1.341-3.663-2.012
				c-3.317-1.822-1.959-0.808-5.454-2.728c-1.436-0.789-2.857-1.701-4.346-2.388c-0.866-0.4-1.753-0.124-2.546,0.347
				c1.191,0.654,2.382,1.309,3.573,1.963c3.258,1.791,6.977,3.565,8.084,4.174c0.497,0.273,1.12,0.781,1.675,0.92
				C1083.043,448.909,1083.15,448.696,1083.626,448.526z"/>
			<g>
				<polygon fill="#D68F41" points="948.005,579.858 934.505,572.709 946.791,533.328 960.291,540.478 				"/>
			</g>
			<g>
				<polygon fill="#F5B667" points="948.772,540.533 935.271,533.384 1069.325,441.755 1082.825,448.904 				"/>
			</g>
			<path fill="#D1AA50" d="M945.645,546.565c-0.092-2.244,1.289-4.781,3.127-6.032c-1.23-0.677-2.461-1.354-3.692-2.029
				c-3.343-1.837-2.269-0.979-5.713-2.871c-0.974-0.534-1.947-1.069-2.921-1.604c-0.271-0.148-0.842-0.626-1.162-0.639
				c-0.359-0.013-1.092,0.944-1.322,1.222c-0.575,0.69-1.027,1.484-1.351,2.322c-0.529,1.37-0.922,3.457,0.492,4.408
				c0.381,0.256,0.822,0.451,1.225,0.672c2.503,1.376,0.237-0.138,4.412,2.156c2.316,1.273,4.634,2.546,6.95,3.818
				c0.298,0.164,0.596,0.327,0.894,0.491C945.907,548.108,945.677,547.284,945.645,546.565z"/>
			<g>
				<path fill="#99642E" d="M1082.825,448.904c1.972-1.17,3.358-0.433,3.446,1.549c0.092,2.093-1.312,4.798-3.121,6.036
					l-115.461,78.942l-13.697,43.936l-5.987,0.491l12.286-39.381l-11.194,7.633c-1.965,1.168-3.363,0.445-3.452-1.545
					c-0.086-2.097,1.312-4.799,3.128-6.032L1082.825,448.904z"/>
			</g>
		</g>
	</g>
	<g>
		<path fill="#B59068" d="M1034.928,504.089l-4.217,114.364c-0.261,7.097,4.006,13.578,10.641,16.109
			c28.298,10.795,103.78,32,142.089-30.323c0,0,9.973-163.123-86.904-159.561c0,0-8.154,0.728-18.999,4.027
			C1052.98,456.178,1035.873,478.438,1034.928,504.089z"/>
		<path fill="#AD886A" d="M1095.91,646.723c10.762-101.102-11.259-142.313-26.264-161.976c-9.825-12.875-22.845-5.983-31.061,0.783
			c-2.15,5.85-3.42,12.096-3.658,18.559l-4.217,114.364c-0.261,7.097,4.006,13.578,10.641,16.108
			C1053.27,639.108,1073.556,645.5,1095.91,646.723z"/>
		<path fill="none" stroke="#423120" stroke-miterlimit="10" d="M1107.216,444.621c0,0-56.269,10.03-58.405,64.879
			c-2.137,54.85,0,101.863,0,101.863"/>
		<path fill="#D6AC83" d="M1179.302,610.439c-2.288-53.305-9.402-86.683-16.659-107.354c-6.593-18.78-27.887-27.824-45.956-19.476
			l0,0c-15.372,7.103-23.044,24.497-18.008,40.665c18.048,57.943,8.537,122.447,8.537,122.447c0.061,0.047,0.117,0.09,0.178,0.137
			C1133.074,646.044,1160.013,637.212,1179.302,610.439z"/>
		<rect x="1045.605" y="598.541" fill="#D6AC83" width="7.479" height="18.432"/>
		<path fill="#9E7A4F" d="M1034.046,527.992c0,0,42.451,4.436,67.716-6.022c5.312-2.199,11.158,1.584,11.158,7.333l0,0
			c0,2.697-1.344,5.214-3.604,6.686c-7.312,4.765-27.5,13.072-75.862,8.084C1033.453,544.072,1024.624,537.936,1034.046,527.992z"/>
		<path fill="#9E7A4F" d="M1031.625,573.504c0,0,42.451,4.436,67.716-6.022c5.312-2.199,11.158,1.584,11.158,7.333l0,0
			c0,2.697-1.345,5.214-3.604,6.686c-7.312,4.765-27.501,13.072-75.862,8.084C1031.032,589.584,1022.203,583.447,1031.625,573.504z"
			/>
		<path fill="#684E32" d="M1051.215,459.103c0,0-1.77,6.411,10.602,8.815c12.371,2.404,22.037-16.242,38.816-18.699
			c16.778-2.457,6.583-11.65-1.864-11.486C1088.225,437.938,1067.242,437.199,1051.215,459.103z"/>
		
			<ellipse transform="matrix(0.9984 -0.0565 0.0565 0.9984 -28.324 65.3295)" fill="#684E32" cx="1140.957" cy="533.475" rx="13.712" ry="15.697"/>
		<path fill="#9E7A4F" d="M1167.686,496.119c0,0-1.402,4.621-6.607,7.659c-2.447,1.428-3.605,4.346-2.811,7.064l0,0
			c1.155,3.946,5.82,5.783,9.241,3.503c1.706-1.137,3.434-2.853,4.865-5.437C1177.029,500.507,1171.964,495.472,1167.686,496.119z"
			/>
		<path fill="#9E7A4F" d="M1181.387,543.65c0,0-2.369,4.209-8.107,6.049c-2.697,0.865-4.46,3.464-4.271,6.291l0,0
			c0.274,4.102,4.433,6.904,8.266,5.418c1.911-0.741,3.969-2.043,5.925-4.256C1189.561,549.955,1185.704,543.943,1181.387,543.65z"
			/>
		<path fill="#684E32" d="M1079.253,524.081c-1.647,0.173-2.843,1.649-2.669,3.296l1.941,18.476
			c0.174,1.647,1.648,2.842,3.297,2.669c1.646-0.173,2.842-1.649,2.669-3.296l-1.942-18.476
			C1082.376,525.104,1080.899,523.908,1079.253,524.081z"/>
		<path fill="#684E32" d="M1064.502,524.865c-1.647,0.173-2.842,1.648-2.669,3.296l1.942,18.476
			c0.173,1.646,1.648,2.842,3.296,2.669s2.843-1.649,2.669-3.296l-1.942-18.476C1067.625,525.887,1066.149,524.691,1064.502,524.865
			z"/>
		<path fill="#684E32" d="M1084.605,567.668c-1.648,0.173-2.843,1.648-2.67,3.296l1.942,18.476c0.173,1.646,1.648,2.842,3.296,2.669
			s2.843-1.649,2.67-3.296l-1.942-18.476C1087.728,568.689,1086.252,567.494,1084.605,567.668z"/>
		<path fill="#684E32" d="M1071.718,569.984c-1.647,0.173-2.843,1.649-2.669,3.296l1.941,18.476
			c0.174,1.647,1.649,2.843,3.297,2.669c1.647-0.173,2.842-1.649,2.669-3.296l-1.942-18.476
			C1074.841,571.006,1073.365,569.812,1071.718,569.984z"/>
	</g>
	<g>
		<path fill="#FF6160" d="M640.294,687.517c0,0-10.576,7.927-15.075,3.877c-4.5-4.049-17.852-8.621-30.181-3.877
			c-12.33,4.745-6.16-0.831-6.16-0.831s3.092-13.744-7.841-13.629c-10.933,0.116-11.046-9.518-11.046-9.518
			s2.908-21.94-10.161-24.577s-9.513-35.488,12.029-50.146c15.868-10.798,39.517,1.35,47.599-37.625
			c5.238-25.26-3.193-39.13-3.193-39.13s81.646,67.702,50.136,146.598c0,0-2.904,6.327-6.274,6.371
			C656.756,665.074,634.765,671.088,640.294,687.517z"/>
		<path fill="#FCC25E" d="M593.564,648.725c-6.84-4.92-7.778-25.709,0.842-33.69c9.761-9.038,18.706-0.259,30.812-13.507
			c9.396-10.283,5.758-25.312,5.758-25.312s26.342,33.393,12.135,68.964C643.111,645.179,627.4,673.057,593.564,648.725z"/>
		<path fill="#FFFEFA" d="M605.924,631.838c-2.135-2.966,0.345-11.645,4.99-13.739c5.26-2.371,7.729,2.473,14.533-1.307
			c5.282-2.934,5.857-9.616,5.857-9.616s6.23,17.363-4.516,30.033C626.789,637.209,616.484,646.509,605.924,631.838z"/>
	</g>
	<path fill="#FFB762" d="M350.968,740.965c0,0,18.57,17,63.47,17s46.063-17,46.063-17s-11.163-28.797-33.163-28.398
		S356.598,713.965,350.968,740.965z"/>
	<path fill="#FFB762" d="M603.498,795.298c0,0,28.798,8.667,43.819,3.334c15.021-5.334-10.85-30.588-16.979-30.588
		c-17.418,0-20.348,15.691-26.84,16.14C597.005,784.632,595.629,793.285,603.498,795.298z"/>
	<path fill="#FFFEFA" d="M926.43,778.632c0,0-26.667,6-26.667,22.666c0,16.667,46.231,17.405,54.231,13.405
		s16.436-11.405,37.758-10.738C1003.775,804.341,993.097,761.298,926.43,778.632z"/>
	<path fill="#FFFEFA" d="M1156.838,280.465c0,0,2.75-19.25-6.597-32.163c0,0-1.653,12.413-9.5,16.059
		c0,0-1.653-18.313-13.653-24.837c0,0,0.788,17.223-1.73,19.691c0,0,0-14.75-11.684-21.25c0,0,17.978,24.686-32.676,24.862
		L1156.838,280.465z"/>
	<path fill="#FFFEFA" d="M290.45,387.515c0,0-4.184-18.99,4.17-32.566c0,0,2.578,12.254,10.675,15.302
		c0,0,0.277-18.386,11.755-25.79c0,0,0.504,17.233,3.201,19.506c0,0-1.104-14.709,10.059-22.065c0,0-16.079,25.963,34.446,22.346
		L290.45,387.515z"/>
</g>
</svg>
